<?xml version="1.0" encoding="UTF-8"?>
<svg width="112px" height="112px" viewBox="0 0 112 112" version="1.1" xmlns="http://www.w3.org/2000/svg" xmlns:xlink="http://www.w3.org/1999/xlink">
    <!-- Generator: Sketch 54.1 (76490) - https://sketchapp.com -->
    <title>Rollercoaster</title>
    <desc>Created with Sketch.</desc>
    <defs>
        <path d="M9.18471325,13.2301626 C8.46730767,10.5267768 7.90076713,8.63212464 7.48509164,7.54620607 L5.74680994,3.30006415 L5.48697282,0.827879076 C4.55935701,0.265052652 4.09545871,0.642383904 4.09527793,1.95987283 C3.77538092,1.58948122 3.60999822,1.51895169 3.59912984,1.74828423 C3.79431081,2.22437897 4.13449882,3.3002851 4.64476798,3.30021517 L6.27927056,7.98626057 C6.55434457,10.8625375 6.95602493,12.6105825 7.48431166,13.2303956 C8.01259839,13.8502087 8.57939892,13.850131 9.18471325,13.2301626 Z" id="path-1"></path>
        <filter x="-62.7%" y="-19.1%" width="225.3%" height="153.4%" filterUnits="objectBoundingBox" id="filter-2">
            <feOffset dx="0" dy="1" in="SourceAlpha" result="shadowOffsetOuter1"></feOffset>
            <feGaussianBlur stdDeviation="1" in="shadowOffsetOuter1" result="shadowBlurOuter1"></feGaussianBlur>
            <feColorMatrix values="0 0 0 0 0.62035779   0 0 0 0 0.62035779   0 0 0 0 0.62035779  0 0 0 0.5 0" type="matrix" in="shadowBlurOuter1"></feColorMatrix>
        </filter>
        <path d="M9.5601162,14.3050516 C8.81635444,11.3821329 8.23080893,9.33314245 7.80347965,8.15808013 L6.01868473,3.56251952 L5.73806064,0.892559644 C4.79844592,0.278168534 4.33350704,0.681895041 4.34324402,2.10373916 C4.01788175,1.70160085 3.85058428,1.62423961 3.84135158,1.87165545 C4.04175013,2.38693052 4.39288494,3.55061901 4.90742303,3.55438532 L6.5908825,8.62391222 C6.88991334,11.7300862 7.3081155,13.6196158 7.84548897,14.2925009 C8.38286244,14.965386 8.95440485,14.9695696 9.5601162,14.3050516 Z" id="path-3"></path>
        <filter x="-61.2%" y="-17.6%" width="222.4%" height="149.3%" filterUnits="objectBoundingBox" id="filter-4">
            <feOffset dx="0" dy="1" in="SourceAlpha" result="shadowOffsetOuter1"></feOffset>
            <feGaussianBlur stdDeviation="1" in="shadowOffsetOuter1" result="shadowBlurOuter1"></feGaussianBlur>
            <feColorMatrix values="0 0 0 0 0.62035779   0 0 0 0 0.62035779   0 0 0 0 0.62035779  0 0 0 0.5 0" type="matrix" in="shadowBlurOuter1"></feColorMatrix>
        </filter>
    </defs>
    <g id="PC-EP-Game-Loading" stroke="none" stroke-width="1" fill="none" fill-rule="evenodd">
        <g id="Game_Loading_01" transform="translate(-664.000000, -356.000000)">
            <g id="Rollercoaster" transform="translate(664.000000, 356.000000)">
                <circle id="Oval" stroke="#A2EEF9" stroke-width="2" fill="#555555" cx="56" cy="56" r="55"></circle>
                <circle id="Oval-Copy-3" fill="#FFFFFF" cx="56" cy="56" r="47"></circle>
                <g id="Car" transform="translate(26.000000, 62.000000)">
                    <path d="M4,14 L7.17297256,14 C5.65630131,18.5872669 7.29173835,20.8809003 12.0792837,20.8809003 C14.666452,22.0671043 14.6399705,23.6859435 11.999839,25.7374179 L4.29972313,26 L4,14 Z" id="Path-2" fill="#555555"></path>
                    <path d="M17,14 L20.1729726,14 C18.6563013,18.5872669 20.2917384,20.8809003 25.0792837,20.8809003 C27.666452,22.0671043 27.6399705,23.6859435 24.999839,25.7374179 L17.2997231,26 L17,14 Z" id="Path-2-Copy" fill="#555555"></path>
                    <g id="Person" transform="translate(13.000000, 2.000000)">
                        <path d="M13.503558,19.7353954 L14.9327704,23.1534931 L16.3086748,23.1534931 C17.208329,24.0351694 16.2732901,24.3667316 13.503558,24.1481797 L12.8894799,19.9733362 L13.503558,19.7353954 Z" id="Path-9" fill="#FFD6D6"></path>
                        <path d="M14.079372,19.7353954 L15.5085844,23.1534931 C16.0045403,23.0622645 16.4631751,23.0622645 16.8844889,23.1534931 C17.5142991,23.5430146 18.4260483,24.4760076 14.079372,24.2133002 L13.4652939,19.9733362 L14.079372,19.7353954 Z" id="Path-9" fill="#FDE2E2"></path>
                        <path d="M10.9101901,13.2301381 C10.193602,10.526606 9.6276424,8.63186839 9.21231128,7.54592531 L7.47539024,3.29971786 L7.21625103,0.827292479 C6.28890298,0.264644741 5.82496129,0.642148001 5.82442595,1.95980226 C5.50466873,1.58945016 5.33932575,1.51895622 5.32839701,1.74832045 C5.52342538,2.22442246 5.86328119,3.30037214 6.3734864,3.30016507 L8.00652292,7.98635908 C8.28078836,10.8629229 8.68194793,12.6110792 9.21000162,13.2308281 C9.73805531,13.850577 10.3047848,13.850347 10.9101901,13.2301381 Z" id="Path-7" fill="#FDE2E2" transform="translate(8.119294, 7.135108) rotate(19.000000) translate(-8.119294, -7.135108) "></path>
                        <polygon id="Path-4" fill="#FDE2E2" points="7.45553628 10.6164235 7.13606105 11.6080226 7.82751821 12.4726452 8.95177501 11.6080226 8.55592765 10.243551"></polygon>
                        <path d="M8.88672326,10.5804243 C12.4760769,9.74149526 9.4202367,9.2845848 10.0420799,8.77025775 C11.4778863,9.9605739 11.0297802,8.91117761 11.8909166,8.4392661 C12.2002193,8.26976508 11.4778863,7.72382572 11.4778863,7.35260345 C11.4778863,5.76463309 10.3177831,4.47732876 8.88672326,4.47732876 C7.45566343,4.47732876 6.29556022,5.76463309 6.29556022,7.35260345 C6.29556022,8.94057382 7.48756842,10.9074446 8.88672326,10.5804243 Z" id="Oval" fill="#FDE2E2"></path>
                        <path d="M8.03135029,3.60227795 C9.77574748,3.58684004 12.6644165,4.23528178 11.4778863,6.79240356 L8.03135029,6.23906269 C8.68458232,8.01171414 7.43998037,9.34131929 4.29754444,10.2278781 C3.40283803,11.6035207 2.12140004,11.4682188 0.453230474,9.82197269 C-0.247427359,8.89951239 -0.135714731,8.43828224 0.788368357,8.43828224 C1.6268392,8.23523749 1.92520112,7.87334456 1.68345412,7.35260345 C1.68345412,6.65232158 2.57094033,6.30218065 4.34591276,6.30218065 C5.30836361,6.10900358 6.28695311,3.61771586 8.03135029,3.60227795 Z" id="Path-3" fill="#FF9900"></path>
                        <path d="M9.13174166,11.6533135 L7.71187506,11.6080226 C6.21084116,13.0284747 5.59953021,14.4573611 5.87794221,15.8946818 C6.29556022,18.0506629 7.82569164,19.3732183 11.1431848,19.0268051 C12.3315127,19.5064844 13.0202996,20.2163033 13.2095455,21.1562619 C15.6455474,21.0645994 16.8705285,20.9865532 16.8844889,20.9221233 C16.4011619,19.1727033 14.3800272,16.3321432 11.7558844,15.8946818 C10.0064559,15.6030408 9.13174166,14.1892514 9.13174166,11.6533135 Z" id="Path-5" fill="#579EE8"></path>
                        <g id="Path-7" transform="translate(6.391922, 7.135187) rotate(6.000000) translate(-6.391922, -7.135187) ">
                            <use fill="black" fill-opacity="1" filter="url(#filter-2)" xlink:href="#path-1"></use>
                            <use fill="#FDE2E2" fill-rule="evenodd" xlink:href="#path-1"></use>
                        </g>
                        <path d="M8.55592765,13.4641379 L8.55592765,12.4726452 C8.06627299,13.0331814 7.69947587,13.3145403 7.45553628,13.3167219 C7.21159669,13.3189034 6.85154859,13.0440448 6.37539197,12.4921458 L6.37539197,13.4641379 C6.24330889,13.9285783 6.52139657,14.1607985 7.209655,14.1607985 C7.89791343,14.1607985 8.34667098,13.9285783 8.55592765,13.4641379 Z" id="Path-6" fill="#207CDB"></path>
                    </g>
                    <g id="Person">
                        <path d="M14.6550064,21 L16.1794758,24.8166261 L17.6470843,24.8166261 C18.6067004,25.8011003 17.6093412,26.1713206 14.6550064,25.9272869 L14,21.2656832 L14.6550064,21 Z" id="Path-9" fill="#FFD6D6"></path>
                        <path d="M14.6208936,21 L16.0659683,24.7778795 C16.5674287,24.6770484 17.0311538,24.6770484 17.4571436,24.7778795 C18.0939439,25.2084013 19.0158123,26.2395992 14.6208936,25.9492398 L14,21.262986 L14.6208936,21 Z" id="Path-9" fill="#FDE2E2"></path>
                        <path d="M11.4064841,14.3063687 C10.6186928,11.391332 10.0018589,9.34694278 9.55598253,8.17320103 L7.69790271,3.5811697 L7.37968976,0.924152706 C6.42565358,0.300137684 5.96305191,0.694599965 5.99188473,2.10753955 C5.65899368,1.70327352 5.48955721,1.623995 5.48357532,1.86970398 C5.69219275,2.38458736 6.06121982,3.54593029 6.57920223,3.55708297 L8.3416223,8.61860612 C8.68420221,11.7093274 9.13045451,13.5928601 9.68037919,14.269204 C10.2303039,14.9455479 10.8056722,14.9579361 11.4064841,14.3063687 Z" id="Path-7" fill="#FDE2E2" transform="translate(8.445030, 7.711666) rotate(19.000000) translate(-8.445030, -7.711666) "></path>
                        <polygon id="Path-4" fill="#FDE2E2" points="7.3519004 11.3345507 7 12.2242387 7.76163666 13 9 12.2242387 8.56397608 11"></polygon>
                        <path d="M8.74082928,11.9589525 C12.5375049,11.0023777 9.30515859,10.4813932 9.96291956,9.89494039 C11.4816586,11.2521785 11.0076697,10.0556219 11.9185456,9.51753271 C12.2457137,9.32426201 11.4816586,8.70176379 11.4816586,8.27848382 C11.4816586,6.4678272 10.2545475,5 8.74082928,5 C7.22711107,5 6,6.4678272 6,8.27848382 C6,10.0891404 7.26085889,12.331832 8.74082928,11.9589525 Z" id="Oval" fill="#FDE2E2"></path>
                        <path d="M8.19812445,4.00028268 C9.97874472,3.98395752 12.9273981,4.66966669 11.7162291,7.37375213 L8.19812445,6.78860949 C8.86492109,8.66313928 7.59447449,10.0691599 4.38678465,11.0066713 C3.47349931,12.4613752 2.16545175,12.3182972 0.462641983,10.5774375 C-0.252565285,9.60196134 -0.138532901,9.11422324 0.804739137,9.11422324 C1.66062116,8.89950904 1.96517868,8.51681729 1.71841171,7.966148 C1.71841171,7.22561932 2.62432692,6.85535498 4.43615735,6.85535498 C5.41859387,6.65107558 6.41750417,4.01660785 8.19812445,4.00028268 Z" id="Path-3" fill="#111111"></path>
                        <path d="M9.29758955,13.0474337 L7.8869418,13 C6.39565376,14.4876586 5.78831191,15.9841506 6.06491625,17.4894761 C6.47982276,19.7474642 8.0000194,21.1325944 11.2959729,20.7697911 C12.4765852,21.2721657 13.1609,22.0155687 13.3489172,23 C15.7691027,22.9040006 16.9861303,22.8222618 17,22.7547834 C16.5198111,20.9225923 14.5117992,17.9476353 11.9046944,17.4894761 C10.1666245,17.1840366 9.29758955,15.7033558 9.29758955,13.0474337 Z" id="Path-5" fill="#BEAB0E"></path>
                        <g id="Path-7" transform="translate(6.700734, 7.707406) rotate(6.000000) translate(-6.700734, -7.707406) ">
                            <use fill="black" fill-opacity="1" filter="url(#filter-4)" xlink:href="#path-3"></use>
                            <use fill="#FDE2E2" fill-rule="evenodd" xlink:href="#path-3"></use>
                        </g>
                        <path d="M9,14.1746477 L9,13 C8.55736146,13.6640821 8.2257838,13.9974154 8.00526703,14 C7.78475026,14.0025846 7.45927359,13.6769522 7.02883701,13.023103 L7.02883701,14.1746477 C6.90943641,14.7248826 7.16082241,15 7.782995,15 C8.4051676,15 8.81083593,14.7248826 9,14.1746477 Z" id="Path-6" fill="#948903"></path>
                    </g>
                    <path d="M4.15225583,22.3590385 C20.7155352,21.8715191 31.7084441,21.704675 37.1309825,21.8585061 C50.2286794,22.2300726 55.913112,23.4253048 54.1787071,28.5 C51.43892,36.8597719 36.6512048,35.9738403 30.4495254,35.9738403 C15.3556726,35.9738403 9.53900051,35.4372023 4.15225583,30.6779672 C0.593012043,27.5098093 0.593012043,24.7368331 4.15225583,22.3590385 Z" id="Path" stroke="#7DDAE3" fill="#BF0000"></path>
                    <g id="Group-6" transform="translate(11.000000, 31.000000)">
                        <ellipse id="Oval-Copy-6" stroke="#111111" fill="#555555" cx="3.21336207" cy="3.19565217" rx="3.21336207" ry="3.19565217"></ellipse>
                        <ellipse id="Oval-Copy-6" fill="#FFFFFF" cx="3.21336207" cy="3.19565217" rx="1.60668103" ry="1.59782609"></ellipse>
                    </g>
                    <g id="Group-6" transform="translate(43.000000, 31.000000)">
                        <ellipse id="Oval-Copy-6" stroke="#111111" fill="#555555" cx="3.21336207" cy="3.19565217" rx="3.21336207" ry="3.19565217"></ellipse>
                        <ellipse id="Oval-Copy-6" fill="#FFFFFF" cx="3.21336207" cy="3.19565217" rx="1.60668103" ry="1.59782609"></ellipse>
                    </g>
                    <path d="M24,25.2739726 L51.7964353,25.2739726" id="Path-8" stroke="#7DDAE3" stroke-linecap="round" stroke-linejoin="round"></path>
                    <path d="M4.09580728,26 C3.60104922,27.0614924 5.04037245,29.2780013 8,31" id="Path-10" stroke="#CCCCCC" opacity="0.6" stroke-linecap="round"></path>
                </g>
                <path d="M74.5703603,90 L74,89.4281236 L78,89.4281236 L74.5703603,90 Z M75.1644817,86.5429053 L75.1644817,87.4292876 L75.5804457,87.4292876 C75.8667095,87.4292876 76.1007854,87.2309687 76.1007854,86.9858443 C76.1007854,86.741325 75.8667095,86.5429053 75.5804457,86.5429053 L75.1644817,86.5429053 Z M75.1644817,88.8593821 L74.5271041,88.8593821 L74.5271041,86 L75.5804457,86 C76.2186517,86 76.7375713,86.4418293 76.7375713,86.9858443 C76.7375713,87.3170145 76.5445592,87.609449 76.2506034,87.7893078 L77.1937708,88.8593821 L76.3958062,88.8593821 L75.6153559,87.9725964 L75.1644817,87.9725964 L75.1644817,88.8593821 Z" id="Combined-Shape" fill="#FFFFFF"></path>
            </g>
        </g>
    </g>
</svg>