<svg width="158" height="86" viewBox="0 0 158 86" fill="none" xmlns="http://www.w3.org/2000/svg">
<path d="M113.687 3.60128C112.202 5.59015 112.611 8.40601 114.6 9.89044C116.589 11.3749 119.405 10.9659 120.889 8.97704C122.374 6.98817 121.965 4.17231 119.976 2.68788C117.987 1.20346 115.171 1.61242 113.687 3.60128Z" fill="url(#paint0_linear_1428_79759)"/>
<path d="M28.2994 49.3303C27.561 43.4586 22.2023 39.2972 16.3306 40.0357C10.4588 40.7742 6.29749 46.1328 7.03595 52.0045C7.77441 57.8763 13.133 62.0376 19.0048 61.2992C24.8765 60.5607 29.0379 55.2021 28.2994 49.3303Z" fill="url(#paint1_linear_1428_79759)"/>
<path d="M19.815 40.1674C23.5821 40.9371 26.7154 43.7075 27.8889 47.4468C26.6396 47.3831 25.2023 47.2229 23.5813 46.9144C19.2854 46.0997 19.2227 42.686 19.815 40.1674Z" fill="url(#paint2_linear_1428_79759)"/>
<path d="M16.3299 40.0355C16.9884 39.9526 17.6395 39.9308 18.2788 39.9683C15.2689 41.502 15.1452 46.5591 17.8837 48.5629C22.9187 52.2473 23.0684 57.3552 20.5183 60.997C20.0271 61.1317 19.5233 61.2336 19.0041 61.2989C16.7775 61.5789 14.6274 61.1547 12.773 60.2002C13.2574 59.1424 14.0213 57.9722 15.1786 56.7076C19.9945 51.4453 9.5815 51.1957 9.71276 43.4875C11.3741 41.6449 13.677 40.3691 16.3299 40.0355Z" fill="url(#paint3_linear_1428_79759)"/>
<path d="M49.108 81.3002C49.9349 78.9221 48.6774 76.324 46.2993 75.4972C43.9212 74.6703 41.323 75.9278 40.4962 78.3059C39.6693 80.684 40.9268 83.2821 43.3049 84.109C45.683 84.9359 48.2812 83.6783 49.108 81.3002Z" fill="url(#paint4_radial_1428_79759)"/>
<path d="M148.785 59.4948C150.637 54.168 147.821 48.3484 142.494 46.4963C137.167 44.6441 131.347 47.4609 129.495 52.7877C127.643 58.1145 130.46 63.9342 135.787 65.7863C141.113 67.6384 146.933 64.8216 148.785 59.4948Z" fill="url(#paint5_radial_1428_79759)"/>
<path d="M133.96 47.3696C136.296 45.7247 140.606 45.4751 143.105 46.8784C142.326 47.3903 140.231 49.7633 139.12 50.2919C136.178 51.694 134.713 49.1448 133.96 47.3696Z" fill="#A7DFF7"/>
<path d="M131.386 49.4939C131.794 48.9821 132.455 48.368 132.856 48.109C131.722 50.3568 133.89 53.794 136.419 53.7928C141.069 53.7905 145.312 60.8664 145.383 64.179C145.144 64.48 143.407 65.5369 141.869 65.974C140.328 66.4117 137.937 66.2503 137.937 66.2503C137.937 66.2503 138.241 61.1516 138.38 59.8816C138.958 54.5963 132.587 59.0325 129.271 54.34C129.463 52.4348 130.032 51.1927 131.386 49.4939Z" fill="#A7DFF7"/>
<defs>
<linearGradient id="paint0_linear_1428_79759" x1="115.591" y1="11.6617" x2="117.948" y2="3.92377" gradientUnits="userSpaceOnUse">
<stop stop-color="#585BF2"/>
<stop offset="1" stop-color="#64D6FB"/>
</linearGradient>
<linearGradient id="paint1_linear_1428_79759" x1="7.03595" y1="52.0045" x2="19.8267" y2="37.3113" gradientUnits="userSpaceOnUse">
<stop stop-color="#FF7EB8"/>
<stop offset="0.609375" stop-color="#FBD1E4"/>
</linearGradient>
<linearGradient id="paint2_linear_1428_79759" x1="19.7541" y1="44.3225" x2="27.3754" y2="43.364" gradientUnits="userSpaceOnUse">
<stop stop-color="#FFC4DF" stop-opacity="0.63"/>
<stop offset="1" stop-color="#FFC4DF" stop-opacity="0.26"/>
</linearGradient>
<linearGradient id="paint3_linear_1428_79759" x1="10.6443" y1="51.5504" x2="21.4701" y2="50.1889" gradientUnits="userSpaceOnUse">
<stop stop-color="#FFC4DF" stop-opacity="0.63"/>
<stop offset="1" stop-color="#FFC4DF" stop-opacity="0.26"/>
</linearGradient>
<radialGradient id="paint4_radial_1428_79759" cx="0" cy="0" r="1" gradientUnits="userSpaceOnUse" gradientTransform="translate(48.4802 79.301) rotate(177.753) scale(6.72891)">
<stop stop-color="#F0F1A4"/>
<stop offset="0.414123" stop-color="#E5E791"/>
<stop offset="0.921875" stop-color="#BBBC7D"/>
</radialGradient>
<radialGradient id="paint5_radial_1428_79759" cx="0" cy="0" r="1" gradientUnits="userSpaceOnUse" gradientTransform="translate(147.865 59.8699) rotate(158.643) scale(13.516 20.578)">
<stop stop-color="#B3E6FC"/>
<stop offset="0.453125" stop-color="#94D3EE"/>
<stop offset="1" stop-color="#63C1EA"/>
</radialGradient>
</defs>
</svg>
