<svg width="100" height="100" viewBox="0 0 100 100" fill="none" xmlns="http://www.w3.org/2000/svg">
<circle cx="49.5" cy="49.5" r="35" stroke="url(#paint0_radial_2255_96859)" stroke-width="5"/>
<path fill-rule="evenodd" clip-rule="evenodd" d="M27.2234 56.6003H30.4301C28.8973 61.2364 30.5502 63.5544 35.3886 63.5544C38.0033 64.7532 37.9766 66.3893 35.3083 68.4626L27.5263 68.7279L27.2234 56.6003Z" fill="#555555"/>
<path fill-rule="evenodd" clip-rule="evenodd" d="M39.3617 56.6003H42.5684C41.0356 61.2364 42.6885 63.5544 47.5269 63.5544C50.1416 64.7532 50.1149 66.3893 47.4466 68.4626L39.6646 68.7279L39.3617 56.6003Z" fill="#555555"/>
<path fill-rule="evenodd" clip-rule="evenodd" d="M48.9664 64.418L50.4108 67.8724H51.8013C52.7105 68.7635 51.7656 69.0986 48.9664 68.8777L48.3457 64.6584L48.9664 64.418Z" fill="#FFD6D6"/>
<path fill-rule="evenodd" clip-rule="evenodd" d="M49.5483 64.418L50.9927 67.8724C51.494 67.7802 51.9575 67.7802 52.3833 67.8724C53.0198 68.2661 53.9412 69.209 49.5483 68.9435L48.9277 64.6584L49.5483 64.418Z" fill="#FDE2E2"/>
<path fill-rule="evenodd" clip-rule="evenodd" d="M44.1863 58.4262C44.3911 55.607 44.4737 53.6102 44.4341 52.4358L44.1715 47.8068L44.7374 45.3589C44.0363 44.5161 43.4688 44.7242 43.0347 45.9831C42.851 45.524 42.7162 45.4023 42.6303 45.6179C42.66 46.137 42.6308 47.277 43.1184 47.4446L43.137 52.46C42.4526 55.299 42.2607 57.1015 42.5614 57.8674C42.8621 58.6334 43.4037 58.8197 44.1863 58.4262Z" fill="#FDE2E2"/>
<path fill-rule="evenodd" clip-rule="evenodd" d="M42.854 55.202L42.5311 56.2041L43.2299 57.078L44.3662 56.2041L43.9661 54.8251L42.854 55.202Z" fill="#FDE2E2"/>
<path fill-rule="evenodd" clip-rule="evenodd" d="M44.3004 55.1656C47.928 54.3177 44.8396 53.856 45.4681 53.3362C46.9191 54.5392 46.4663 53.4786 47.3366 53.0017C47.6492 52.8304 46.9191 52.2786 46.9191 51.9034C46.9191 50.2986 45.7467 48.9976 44.3004 48.9976C42.8541 48.9976 41.6817 50.2986 41.6817 51.9034C41.6817 53.5083 42.8864 55.4961 44.3004 55.1656Z" fill="#FDE2E2"/>
<path fill-rule="evenodd" clip-rule="evenodd" d="M43.4359 48.1132C45.1989 48.0976 48.1183 48.753 46.9191 51.3373L43.4359 50.7781C44.0961 52.5696 42.8383 53.9133 39.6624 54.8093C38.7582 56.1996 37.4631 56.0628 35.7772 54.3991C35.0691 53.4668 35.182 53.0007 36.1159 53.0007C36.9633 52.7955 37.2648 52.4297 37.0205 51.9034C37.0205 51.1957 37.9174 50.8418 39.7113 50.8418C40.684 50.6466 41.673 48.1288 43.4359 48.1132Z" fill="#FF9900"/>
<path fill-rule="evenodd" clip-rule="evenodd" d="M44.548 56.2499L43.1131 56.2041C41.5961 57.6397 40.9782 59.0838 41.2596 60.5364C41.6817 62.7153 43.2281 64.0519 46.5809 63.7018C47.7818 64.1866 48.478 64.904 48.6692 65.8539C51.1311 65.7613 52.3692 65.6824 52.3833 65.6173C51.8948 63.8493 49.8522 60.9785 47.2001 60.5364C45.4321 60.2417 44.548 58.8128 44.548 56.2499Z" fill="#579EE8"/>
<g filter="url(#filter0_d_2255_96859)">
<path d="M43.9422 58.1048C43.5068 55.3119 43.1375 53.3477 42.8344 52.2123L41.5358 47.7609L41.5358 45.2486C40.6629 44.5849 40.1568 44.9152 40.0174 46.2394C39.735 45.8333 39.5763 45.7449 39.5411 45.9743C39.687 46.4734 39.9153 47.5908 40.4281 47.6446L41.5759 52.5272C41.5486 55.4472 41.7676 57.2466 42.2331 57.9254C42.6986 58.6042 43.2683 58.664 43.9422 58.1048Z" fill="black"/>
</g>
<path d="M43.9422 58.1048C43.5068 55.3119 43.1375 53.3477 42.8344 52.2123L41.5358 47.7609L41.5358 45.2486C40.6629 44.5849 40.1568 44.9152 40.0174 46.2394C39.735 45.8333 39.5763 45.7449 39.5411 45.9743C39.687 46.4734 39.9153 47.5908 40.4281 47.6446L41.5759 52.5272C41.5486 55.4472 41.7676 57.2466 42.2331 57.9254C42.6986 58.6042 43.2683 58.664 43.9422 58.1048Z" fill="#FDE2E2"/>
<path fill-rule="evenodd" clip-rule="evenodd" d="M43.9661 58.08V57.078C43.4712 57.6445 43.1005 57.9288 42.854 57.931C42.6075 57.9332 42.2436 57.6554 41.7624 57.0977V58.08C41.6289 58.5494 41.9099 58.7841 42.6055 58.7841C43.3011 58.7841 43.7546 58.5494 43.9661 58.08Z" fill="#207CDB"/>
<path fill-rule="evenodd" clip-rule="evenodd" d="M36.9918 63.6747L38.5324 67.532H40.0157C40.9855 68.5269 39.9775 68.9011 36.9918 68.6544L36.3298 63.9433L36.9918 63.6747Z" fill="#FFD6D6"/>
<path fill-rule="evenodd" clip-rule="evenodd" d="M36.9573 63.6747L38.4177 67.4928C38.9245 67.3909 39.3932 67.3909 39.8237 67.4928C40.4673 67.9279 41.399 68.9701 36.9573 68.6766L36.3298 63.9405L36.9573 63.6747Z" fill="#FDE2E2"/>
<path fill-rule="evenodd" clip-rule="evenodd" d="M31.3758 57.5212C31.5821 54.4765 31.6653 52.3199 31.6255 51.0516L31.3609 46.0522L31.931 43.4085C31.2247 42.4983 30.6528 42.7231 30.2155 44.0827C30.0304 43.5869 29.8946 43.4554 29.808 43.6882C29.838 44.2488 29.8085 45.48 30.2998 45.6611L30.3185 51.0777C29.6289 54.1438 29.4356 56.0905 29.7386 56.9178C30.0415 57.745 30.5873 57.9461 31.3758 57.5212Z" fill="#FDE2E2"/>
<path fill-rule="evenodd" clip-rule="evenodd" d="M29.611 53.9065L29.2553 54.8056L30.0251 55.5897L31.2766 54.8056L30.8359 53.5684L29.611 53.9065Z" fill="#FDE2E2"/>
<path fill-rule="evenodd" clip-rule="evenodd" d="M31.0147 54.5375C34.8517 53.5708 31.585 53.0443 32.2498 52.4516C33.7846 53.8232 33.3056 52.614 34.2262 52.0701C34.5568 51.8748 33.7846 51.2457 33.7846 50.8179C33.7846 48.988 32.5445 47.5045 31.0147 47.5045C29.4848 47.5045 28.2447 48.988 28.2447 50.8179C28.2447 52.6478 29.5189 54.9144 31.0147 54.5375Z" fill="#FDE2E2"/>
<path fill-rule="evenodd" clip-rule="evenodd" d="M30.4662 46.4942C32.2657 46.4777 35.2458 47.1707 34.0217 49.9035L30.4662 49.3122C31.1401 51.2067 29.8561 52.6276 26.6143 53.5751C25.6913 55.0453 24.3693 54.9007 22.6484 53.1413C21.9256 52.1555 22.0408 51.6625 22.9941 51.6625C23.8591 51.4455 24.1669 51.0588 23.9175 50.5022C23.9175 49.7538 24.8331 49.3796 26.6642 49.3796C27.6571 49.1732 28.6666 46.5107 30.4662 46.4942Z" fill="#111111"/>
<path fill-rule="evenodd" clip-rule="evenodd" d="M31.5773 55.6376L30.1517 55.5897C28.6445 57.0931 28.0307 58.6055 28.3103 60.1269C28.7296 62.4089 30.266 63.8088 33.597 63.4421C34.7902 63.9498 35.4818 64.7011 35.6718 65.696C38.1177 65.599 39.3477 65.5164 39.3617 65.4482C38.8764 63.5965 36.847 60.5899 34.2122 60.1269C32.4556 59.8182 31.5773 58.3218 31.5773 55.6376Z" fill="#BEAB0E"/>
<g filter="url(#filter1_d_2255_96859)">
<path d="M31.1299 57.1741C30.6911 54.1577 30.319 52.0364 30.0136 50.8102L28.7052 46.0027L28.7052 43.2894C27.8257 42.5726 27.3157 42.9293 27.1753 44.3594C26.8908 43.9209 26.7308 43.8255 26.6954 44.0732C26.8424 44.6122 27.0724 45.819 27.5891 45.8771L28.7456 51.1503C28.7181 54.3039 28.9388 56.2473 29.4078 56.9804C29.8768 57.7135 30.4509 57.778 31.1299 57.1741Z" fill="black"/>
</g>
<path d="M31.1299 57.1741C30.6911 54.1577 30.319 52.0364 30.0136 50.8102L28.7052 46.0027L28.7052 43.2894C27.8257 42.5726 27.3157 42.9293 27.1753 44.3594C26.8908 43.9209 26.7308 43.8255 26.6954 44.0732C26.8424 44.6122 27.0724 45.819 27.5891 45.8771L28.7456 51.1503C28.7181 54.3039 28.9388 56.2473 29.4078 56.9804C29.8768 57.7135 30.4509 57.778 31.1299 57.1741Z" fill="#FDE2E2"/>
<path fill-rule="evenodd" clip-rule="evenodd" d="M31.2766 56.7768V55.5897C30.8293 56.2608 30.4941 56.5977 30.2713 56.6003C30.0484 56.6029 29.7195 56.2738 29.2845 55.613V56.7768C29.1638 57.3329 29.4179 57.6109 30.0467 57.6109C30.6754 57.6109 31.0854 57.3329 31.2766 56.7768Z" fill="#948903"/>
<path fill-rule="evenodd" clip-rule="evenodd" d="M27.0002 64.4129C33.682 64.2162 40.3121 64.7781 47 64.4129C51.8793 64.1465 49.1854 61.4692 51.1016 61.5236C53.0179 61.5779 70.7597 64.3572 67.8764 71.3889C62.5002 84.5 39.4998 83.5 27.5 71.3889C25.5826 69.4537 23.4031 66.816 27.0002 64.4129Z" fill="url(#paint1_linear_2255_96859)"/>
<path d="M41.2475 82.4593C43.0411 82.4593 44.4951 81.0133 44.4951 79.2296C44.4951 77.446 43.0411 76 41.2475 76C39.454 76 38 77.446 38 79.2296C38 81.0133 39.454 82.4593 41.2475 82.4593Z" fill="#555555" stroke="#111111"/>
<path d="M41.2476 80.8445C42.1443 80.8445 42.8713 80.1215 42.8713 79.2296C42.8713 78.3378 42.1443 77.6148 41.2476 77.6148C40.3508 77.6148 39.6238 78.3378 39.6238 79.2296C39.6238 80.1215 40.3508 80.8445 41.2476 80.8445Z" fill="white"/>
<path d="M57.2475 83.4593C59.0411 83.4593 60.4951 82.0133 60.4951 80.2296C60.4951 78.446 59.0411 77 57.2475 77C55.454 77 54 78.446 54 80.2296C54 82.0133 55.454 83.4593 57.2475 83.4593Z" fill="#555555" stroke="#111111"/>
<path d="M57.2475 81.8445C58.1443 81.8445 58.8713 81.1215 58.8713 80.2296C58.8713 79.3378 58.1443 78.6148 57.2475 78.6148C56.3508 78.6148 55.6238 79.3378 55.6238 80.2296C55.6238 81.1215 56.3508 81.8445 57.2475 81.8445Z" fill="white"/>
<path fill-rule="evenodd" clip-rule="evenodd" d="M48.4574 69.2333C48.4574 68.9542 48.5596 68.7279 48.6856 68.7279H61.3676C61.4936 68.7279 61.5957 68.9542 61.5957 69.2333C61.5957 69.5123 61.4936 69.7386 61.3676 69.7386H48.6856C48.5596 69.7386 48.4574 69.5123 48.4574 69.2333Z" fill="#D8E2CB"/>
<path opacity="0.6" d="M27.0968 67C26.5968 68.0728 28.0514 70.3129 31.0426 72.0532" stroke="#CCCCCC" stroke-linecap="round"/>
<path fill-rule="evenodd" clip-rule="evenodd" d="M62.7205 72.0532L62 71.3307H67.0532L62.7205 72.0532ZM63.4711 67.6859V68.8056H63.9966C64.3582 68.8056 64.6539 68.5551 64.6539 68.2454C64.6539 67.9365 64.3582 67.6859 63.9966 67.6859H63.4711ZM63.4711 70.6123H62.6659V67H63.9966C64.8028 67 65.4584 67.5582 65.4584 68.2454C65.4584 68.6638 65.2145 69.0332 64.8432 69.2604L66.0347 70.6123H65.0266L64.0407 69.492H63.4711V70.6123Z" fill="white"/>
<defs>
<filter id="filter0_d_2255_96859" x="37.5411" y="43.9163" width="8.40114" height="17.5674" filterUnits="userSpaceOnUse" color-interpolation-filters="sRGB">
<feFlood flood-opacity="0" result="BackgroundImageFix"/>
<feColorMatrix in="SourceAlpha" type="matrix" values="0 0 0 0 0 0 0 0 0 0 0 0 0 0 0 0 0 0 127 0" result="hardAlpha"/>
<feOffset dy="1"/>
<feGaussianBlur stdDeviation="1"/>
<feColorMatrix type="matrix" values="0 0 0 0 0.620358 0 0 0 0 0.620358 0 0 0 0 0.620358 0 0 0 0.5 0"/>
<feBlend mode="normal" in2="BackgroundImageFix" result="effect1_dropShadow_2255_96859"/>
<feBlend mode="normal" in="SourceGraphic" in2="effect1_dropShadow_2255_96859" result="shape"/>
</filter>
<filter id="filter1_d_2255_96859" x="24.6954" y="41.9305" width="8.43448" height="18.6528" filterUnits="userSpaceOnUse" color-interpolation-filters="sRGB">
<feFlood flood-opacity="0" result="BackgroundImageFix"/>
<feColorMatrix in="SourceAlpha" type="matrix" values="0 0 0 0 0 0 0 0 0 0 0 0 0 0 0 0 0 0 127 0" result="hardAlpha"/>
<feOffset dy="1"/>
<feGaussianBlur stdDeviation="1"/>
<feColorMatrix type="matrix" values="0 0 0 0 0.620358 0 0 0 0 0.620358 0 0 0 0 0.620358 0 0 0 0.5 0"/>
<feBlend mode="normal" in2="BackgroundImageFix" result="effect1_dropShadow_2255_96859"/>
<feBlend mode="normal" in="SourceGraphic" in2="effect1_dropShadow_2255_96859" result="shape"/>
</filter>
<radialGradient id="paint0_radial_2255_96859" cx="0" cy="0" r="1" gradientUnits="userSpaceOnUse" gradientTransform="translate(49.5 49.5) rotate(90) scale(37.5)">
<stop offset="0.867725" stop-color="#6E6C6C"/>
<stop offset="0.91" stop-color="#1E1919"/>
<stop offset="0.96" stop-color="#252121"/>
</radialGradient>
<linearGradient id="paint1_linear_2255_96859" x1="23.6794" y1="71.6609" x2="77.2433" y2="71.6609" gradientUnits="userSpaceOnUse">
<stop stop-color="#701C1C"/>
<stop offset="1" stop-color="#A30606"/>
</linearGradient>
</defs>
</svg>
