<svg width="112" height="112" viewBox="0 0 112 112" fill="none" xmlns="http://www.w3.org/2000/svg">
<path fill-rule="evenodd" clip-rule="evenodd" d="M31.2234 68.6003H34.4301C32.8973 73.2364 34.5502 75.5544 39.3886 75.5544C42.0033 76.7532 41.9766 78.3893 39.3083 80.4626L31.5263 80.7279L31.2234 68.6003Z" fill="#555555"/>
<path fill-rule="evenodd" clip-rule="evenodd" d="M43.3617 68.6003H46.5684C45.0356 73.2364 46.6885 75.5544 51.5269 75.5544C54.1416 76.7532 54.1149 78.3893 51.4466 80.4626L43.6646 80.7279L43.3617 68.6003Z" fill="#555555"/>
<path fill-rule="evenodd" clip-rule="evenodd" d="M52.9664 76.418L54.4108 79.8724H55.8013C56.7105 80.7635 55.7656 81.0986 52.9664 80.8777L52.3457 76.6584L52.9664 76.418Z" fill="#FFD6D6"/>
<path fill-rule="evenodd" clip-rule="evenodd" d="M53.5483 76.418L54.9927 79.8724C55.494 79.7802 55.9575 79.7802 56.3833 79.8724C57.0198 80.2661 57.9412 81.209 53.5483 80.9435L52.9277 76.6584L53.5483 76.418Z" fill="#FDE2E2"/>
<path fill-rule="evenodd" clip-rule="evenodd" d="M48.1863 70.4262C48.3911 67.607 48.4737 65.6102 48.4341 64.4358L48.1715 59.8068L48.7374 57.3589C48.0363 56.5161 47.4688 56.7242 47.0347 57.9831C46.851 57.524 46.7162 57.4023 46.6303 57.6179C46.66 58.137 46.6308 59.277 47.1184 59.4446L47.137 64.46C46.4526 67.299 46.2607 69.1015 46.5614 69.8674C46.8621 70.6334 47.4037 70.8197 48.1863 70.4262Z" fill="#FDE2E2"/>
<path fill-rule="evenodd" clip-rule="evenodd" d="M46.854 67.202L46.5311 68.2041L47.2299 69.078L48.3662 68.2041L47.9661 66.8251L46.854 67.202Z" fill="#FDE2E2"/>
<path fill-rule="evenodd" clip-rule="evenodd" d="M48.3004 67.1656C51.928 66.3178 48.8396 65.856 49.4681 65.3362C50.9191 66.5392 50.4663 65.4786 51.3366 65.0017C51.6492 64.8304 50.9191 64.2786 50.9191 63.9034C50.9191 62.2986 49.7467 60.9976 48.3004 60.9976C46.8541 60.9976 45.6817 62.2986 45.6817 63.9034C45.6817 65.5083 46.8864 67.4961 48.3004 67.1656Z" fill="#FDE2E2"/>
<path fill-rule="evenodd" clip-rule="evenodd" d="M47.4359 60.1132C49.1989 60.0976 52.1183 60.753 50.9191 63.3373L47.4359 62.7781C48.0961 64.5696 46.8383 65.9133 43.6624 66.8093C42.7582 68.1996 41.4631 68.0628 39.7772 66.3991C39.0691 65.4668 39.182 65.0007 40.1159 65.0007C40.9633 64.7955 41.2648 64.4297 41.0205 63.9034C41.0205 63.1957 41.9174 62.8418 43.7113 62.8418C44.684 62.6466 45.673 60.1288 47.4359 60.1132Z" fill="#FF9900"/>
<path fill-rule="evenodd" clip-rule="evenodd" d="M48.548 68.2499L47.1131 68.2041C45.5961 69.6397 44.9783 71.0838 45.2596 72.5364C45.6817 74.7153 47.2281 76.0519 50.5809 75.7018C51.7818 76.1866 52.478 76.904 52.6692 77.8539C55.1311 77.7613 56.3692 77.6824 56.3833 77.6173C55.8948 75.8493 53.8522 72.9785 51.2001 72.5364C49.4321 72.2417 48.548 70.8128 48.548 68.2499Z" fill="#579EE8"/>
<g filter="url(#filter0_d_2255_96859)">
<path d="M47.9422 70.1048C47.5068 67.3119 47.1375 65.3477 46.8344 64.2123L45.5358 59.7609L45.5358 57.2486C44.6629 56.5849 44.1568 56.9152 44.0174 58.2394C43.735 57.8333 43.5763 57.7449 43.5411 57.9743C43.687 58.4734 43.9153 59.5908 44.4281 59.6446L45.5759 64.5272C45.5486 67.4472 45.7676 69.2466 46.2331 69.9254C46.6986 70.6042 47.2683 70.664 47.9422 70.1048Z" fill="black"/>
</g>
<path d="M47.9422 70.1048C47.5068 67.3119 47.1375 65.3477 46.8344 64.2123L45.5358 59.7609L45.5358 57.2486C44.6629 56.5849 44.1568 56.9152 44.0174 58.2394C43.735 57.8333 43.5763 57.7449 43.5411 57.9743C43.687 58.4734 43.9153 59.5908 44.4281 59.6446L45.5759 64.5272C45.5486 67.4472 45.7676 69.2466 46.2331 69.9254C46.6986 70.6042 47.2683 70.664 47.9422 70.1048Z" fill="#FDE2E2"/>
<path fill-rule="evenodd" clip-rule="evenodd" d="M47.9661 70.08V69.078C47.4712 69.6445 47.1005 69.9288 46.854 69.931C46.6075 69.9332 46.2436 69.6554 45.7624 69.0977V70.08C45.6289 70.5494 45.9099 70.7841 46.6055 70.7841C47.3011 70.7841 47.7546 70.5494 47.9661 70.08Z" fill="#207CDB"/>
<path fill-rule="evenodd" clip-rule="evenodd" d="M40.9918 75.6747L42.5325 79.532H44.0157C44.9855 80.5269 43.9775 80.9011 40.9918 80.6544L40.3298 75.9433L40.9918 75.6747Z" fill="#FFD6D6"/>
<path fill-rule="evenodd" clip-rule="evenodd" d="M40.9573 75.6747L42.4177 79.4928C42.9245 79.3909 43.3932 79.3909 43.8237 79.4928C44.4673 79.9279 45.399 80.9701 40.9573 80.6766L40.3298 75.9405L40.9573 75.6747Z" fill="#FDE2E2"/>
<path fill-rule="evenodd" clip-rule="evenodd" d="M35.3758 69.5212C35.5821 66.4765 35.6653 64.3199 35.6255 63.0516L35.3609 58.0522L35.931 55.4085C35.2247 54.4983 34.6528 54.7231 34.2155 56.0827C34.0304 55.5869 33.8946 55.4554 33.808 55.6882C33.838 56.2488 33.8085 57.48 34.2998 57.6611L34.3185 63.0777C33.6289 66.1438 33.4356 68.0905 33.7386 68.9178C34.0415 69.745 34.5873 69.9461 35.3758 69.5212Z" fill="#FDE2E2"/>
<path fill-rule="evenodd" clip-rule="evenodd" d="M33.611 65.9065L33.2553 66.8056L34.0251 67.5897L35.2766 66.8056L34.8359 65.5684L33.611 65.9065Z" fill="#FDE2E2"/>
<path fill-rule="evenodd" clip-rule="evenodd" d="M35.0147 66.5375C38.8517 65.5708 35.585 65.0443 36.2498 64.4516C37.7846 65.8232 37.3056 64.614 38.2262 64.0701C38.5568 63.8748 37.7846 63.2457 37.7846 62.8179C37.7846 60.988 36.5445 59.5045 35.0147 59.5045C33.4848 59.5045 32.2447 60.988 32.2447 62.8179C32.2447 64.6478 33.5189 66.9144 35.0147 66.5375Z" fill="#FDE2E2"/>
<path fill-rule="evenodd" clip-rule="evenodd" d="M34.4662 58.4942C36.2657 58.4777 39.2458 59.1707 38.0217 61.9035L34.4662 61.3122C35.1401 63.2067 33.8561 64.6276 30.6143 65.5751C29.6913 67.0453 28.3693 66.9007 26.6484 65.1413C25.9256 64.1555 26.0408 63.6625 26.9941 63.6625C27.8591 63.4455 28.1669 63.0588 27.9175 62.5022C27.9175 61.7538 28.8331 61.3796 30.6642 61.3796C31.6571 61.1732 32.6666 58.5107 34.4662 58.4942Z" fill="#111111"/>
<path fill-rule="evenodd" clip-rule="evenodd" d="M35.5773 67.6376L34.1517 67.5897C32.6445 69.0931 32.0307 70.6055 32.3103 72.1269C32.7296 74.4089 34.266 75.8088 37.597 75.4421C38.7902 75.9498 39.4818 76.7011 39.6718 77.696C42.1177 77.599 43.3477 77.5164 43.3617 77.4482C42.8764 75.5965 40.847 72.5899 38.2122 72.1269C36.4556 71.8182 35.5773 70.3218 35.5773 67.6376Z" fill="#BEAB0E"/>
<g filter="url(#filter1_d_2255_96859)">
<path d="M35.1299 69.1741C34.6911 66.1577 34.319 64.0364 34.0136 62.8102L32.7052 58.0027L32.7052 55.2894C31.8257 54.5726 31.3157 54.9293 31.1753 56.3594C30.8908 55.9209 30.7308 55.8255 30.6954 56.0732C30.8424 56.6122 31.0724 57.819 31.5891 57.8771L32.7456 63.1503C32.7181 66.3039 32.9388 68.2473 33.4078 68.9804C33.8768 69.7135 34.4509 69.778 35.1299 69.1741Z" fill="black"/>
</g>
<path d="M35.1299 69.1741C34.6911 66.1577 34.319 64.0364 34.0136 62.8102L32.7052 58.0027L32.7052 55.2894C31.8257 54.5726 31.3157 54.9293 31.1753 56.3594C30.8908 55.9209 30.7308 55.8255 30.6954 56.0732C30.8424 56.6122 31.0724 57.819 31.5891 57.8771L32.7456 63.1503C32.7181 66.3039 32.9388 68.2473 33.4078 68.9804C33.8768 69.7135 34.4509 69.778 35.1299 69.1741Z" fill="#FDE2E2"/>
<path fill-rule="evenodd" clip-rule="evenodd" d="M35.2766 68.7768V67.5897C34.8293 68.2608 34.4941 68.5977 34.2713 68.6003C34.0484 68.6029 33.7195 68.2738 33.2845 67.613V68.7768C33.1638 69.3329 33.4179 69.6109 34.0467 69.6109C34.6754 69.6109 35.0854 69.3329 35.2766 68.7768Z" fill="#948903"/>
<path fill-rule="evenodd" clip-rule="evenodd" d="M31 76.4129C36.8603 76.2404 36.9775 76.695 41.4578 76.602C45.3003 76.5222 49.9012 76.2789 54.0908 76.0501C58.9701 75.7837 53.1852 73.4692 55.1014 73.5236C68.3385 73.8991 77.7529 78.3713 76 83.5C73.2311 91.9487 64.4822 93.8353 58.2146 93.8353C42.9602 93.8353 36.4441 89.6302 31 84.8204C27.4029 81.6185 27.4029 78.816 31 76.4129Z" fill="url(#paint0_linear_2255_96859)"/>
<path d="M45.2475 94.4593C47.0411 94.4593 48.4951 93.0133 48.4951 91.2296C48.4951 89.446 47.0411 88 45.2475 88C43.454 88 42 89.446 42 91.2296C42 93.0133 43.454 94.4593 45.2475 94.4593Z" fill="#555555" stroke="#111111"/>
<path d="M45.2476 92.8445C46.1443 92.8445 46.8713 92.1215 46.8713 91.2296C46.8713 90.3378 46.1443 89.6148 45.2476 89.6148C44.3508 89.6148 43.6238 90.3378 43.6238 91.2296C43.6238 92.1215 44.3508 92.8445 45.2476 92.8445Z" fill="white"/>
<path d="M61.2475 95.4593C63.0411 95.4593 64.4951 94.0133 64.4951 92.2296C64.4951 90.446 63.0411 89 61.2475 89C59.454 89 58 90.446 58 92.2296C58 94.0133 59.454 95.4593 61.2475 95.4593Z" fill="#555555" stroke="#111111"/>
<path d="M61.2475 93.8445C62.1443 93.8445 62.8713 93.1215 62.8713 92.2296C62.8713 91.3378 62.1443 90.6148 61.2475 90.6148C60.3508 90.6148 59.6238 91.3378 59.6238 92.2296C59.6238 93.1215 60.3508 93.8445 61.2475 93.8445Z" fill="white"/>
<path fill-rule="evenodd" clip-rule="evenodd" d="M52.4574 81.2333C52.4574 80.9542 52.5596 80.7279 52.6856 80.7279H65.3676C65.4936 80.7279 65.5957 80.9542 65.5957 81.2333C65.5957 81.5123 65.4936 81.7386 65.3676 81.7386H52.6856C52.5596 81.7386 52.4574 81.5123 52.4574 81.2333Z" fill="#D8E2CB"/>
<path opacity="0.6" d="M31.0968 80C30.5968 81.0728 32.0514 83.3129 35.0426 85.0532" stroke="#CCCCCC" stroke-linecap="round"/>
<path fill-rule="evenodd" clip-rule="evenodd" d="M66.7205 84.0532L66 83.3307H71.0532L66.7205 84.0532ZM67.4711 79.6859V80.8056H67.9966C68.3582 80.8056 68.6539 80.5551 68.6539 80.2454C68.6539 79.9365 68.3582 79.6859 67.9966 79.6859H67.4711ZM67.4711 82.6123H66.6659V79H67.9966C68.8028 79 69.4584 79.5582 69.4584 80.2454C69.4584 80.6638 69.2145 81.0332 68.8432 81.2604L70.0347 82.6123H69.0266L68.0407 81.492H67.4711V82.6123Z" fill="white"/>
<path fill-rule="evenodd" clip-rule="evenodd" d="M55.9958 101.499L56.036 97.75L56 97.75C55.7032 97.75 55.407 97.7469 55.1116 97.7408L54.9911 101.483C55.3251 101.492 55.66 101.498 55.9958 101.499ZM53.9901 101.446L54.1908 97.7117C53.8818 97.6986 53.5738 97.6822 53.2666 97.6625L52.9854 101.387C53.3193 101.41 53.6542 101.43 53.9901 101.446ZM51.9865 101.306L52.3478 97.5934C52.0401 97.5669 51.7333 97.5371 51.4275 97.504L50.9859 101.204C51.3183 101.241 51.6519 101.276 51.9865 101.306ZM49.9897 101.08L50.5113 97.3946C50.2056 97.3547 49.901 97.3115 49.5974 97.2651L48.9959 100.934C49.326 100.986 49.6573 101.035 49.9897 101.08ZM48.0048 100.767L48.6858 97.1153C48.3825 97.0621 48.0804 97.0056 47.7794 96.9459L47.0192 100.579C47.3465 100.645 47.675 100.708 48.0048 100.767ZM46.0352 100.368L46.8744 96.7558C46.5739 96.6892 46.2745 96.6194 45.9765 96.5465L45.0589 100.137C45.383 100.217 45.7085 100.295 46.0352 100.368ZM44.0847 99.8834L45.0804 96.3165C44.7828 96.2366 44.4864 96.1535 44.1915 96.0672L43.1183 99.6092C43.439 99.704 43.7612 99.7954 44.0847 99.8834ZM42.1569 99.3136L43.3071 95.7979C43.013 95.7048 42.7203 95.6085 42.4291 95.5092L41.2025 98.997C41.5191 99.1059 41.8372 99.2114 42.1569 99.3136ZM40.2553 98.6596L41.5577 95.201C41.2678 95.0948 40.9794 94.9856 40.6926 94.8733L39.3149 98.3013C39.6267 98.424 39.9402 98.5435 40.2553 98.6596ZM38.3836 97.9228L39.8357 94.5267C39.5506 94.4078 39.2671 94.2857 38.9852 94.1607L37.4592 97.5233C37.7656 97.6597 38.0737 97.7929 38.3836 97.9228ZM36.5451 97.1044L38.1442 93.7764C37.8646 93.6448 37.5866 93.5103 37.3103 93.3728L35.6387 96.6647C35.939 96.8145 36.2411 96.961 36.5451 97.1044ZM34.7431 96.2059L36.4863 92.9512C36.2128 92.8075 35.941 92.6607 35.671 92.5111L33.8569 95.7271C34.1504 95.8898 34.4458 96.0494 34.7431 96.2059ZM32.9816 95.2293L34.8658 92.0532C34.5989 91.8975 34.3338 91.7389 34.0706 91.5774L32.1171 94.7124C32.4033 94.8877 32.6914 95.06 32.9816 95.2293ZM31.2639 94.1766L33.2858 91.0841C33.026 90.9167 32.7681 90.7465 32.5122 90.5735L30.4226 93.6224C30.7009 93.8101 30.9813 93.9948 31.2639 94.1766ZM29.593 93.0498L31.7495 90.0457C31.4972 89.867 31.2469 89.6856 30.9988 89.5015L28.7764 92.4594C29.0464 92.6591 29.3186 92.8559 29.593 93.0498ZM27.9722 91.851L30.2597 88.9404C30.0154 88.7506 29.7733 88.5583 29.5333 88.3633L27.1817 91.2255C27.4429 91.4368 27.7064 91.6454 27.9722 91.851ZM26.4045 90.5827L28.8194 87.7701C28.5837 87.5698 28.3501 87.3669 28.1188 87.1614L25.6414 89.9232C25.8933 90.1457 26.1477 90.3656 26.4045 90.5827ZM24.8927 89.2471L27.4316 86.5374C27.2048 86.3268 26.9803 86.1138 26.7582 85.8983L24.1586 88.5548C24.4008 88.7882 24.6455 89.019 24.8927 89.2471ZM23.4397 87.8467L26.0989 85.2445C25.8816 85.0242 25.6666 84.8014 25.4541 84.5763L22.7361 87.123C22.968 87.3668 23.2026 87.608 23.4397 87.8467ZM22.0483 86.3842L24.8241 83.8941C24.6166 83.6644 24.4117 83.4325 24.2092 83.1982L21.3766 85.6305C21.5978 85.8841 21.8217 86.1354 22.0483 86.3842ZM20.7212 84.8621L23.6097 82.4888C23.4126 82.2503 23.218 82.0096 23.0261 81.7666L20.0828 84.0798C20.2928 84.3429 20.5056 84.6037 20.7212 84.8621ZM19.4611 83.2833L22.4583 81.0314C22.2719 80.7845 22.0881 80.5355 21.9071 80.2844L18.8571 82.4738C19.0556 82.7459 19.2569 83.0157 19.4611 83.2833ZM18.2705 81.6508L21.3722 79.5249C21.1969 79.2701 21.0243 79.0132 20.8545 78.7543L17.7022 80.8154C17.8887 81.096 18.0781 81.3745 18.2705 81.6508ZM17.1519 79.9674L20.3538 77.9722C20.1899 77.7098 20.0288 77.4455 19.8706 77.1793L16.6203 79.1076C16.7944 79.3963 16.9717 79.6829 17.1519 79.9674ZM16.1075 78.2363L19.4051 76.3762C19.253 76.1068 19.1037 75.8356 18.9574 75.5626L15.6137 77.3535C15.7752 77.6498 15.9398 77.9441 16.1075 78.2363ZM15.1396 76.4606L18.5282 74.74C18.3881 74.4641 18.2509 74.1864 18.1168 73.9071L14.6846 75.5563C14.8331 75.8596 14.9847 76.1611 15.1396 76.4606ZM14.2502 74.6436L17.7247 73.0668C17.5971 72.785 17.4724 72.5016 17.3508 72.2166L13.8352 73.7199C13.9703 74.0295 14.1086 74.3375 14.2502 74.6436ZM13.4413 72.7885L16.9965 71.3597C16.8815 71.0728 16.7697 70.7843 16.6609 70.4942L13.0674 71.8475C13.1887 72.1628 13.3133 72.4765 13.4413 72.7885ZM12.7145 70.899L16.3449 69.6222C16.243 69.3307 16.1441 69.0376 16.0484 68.7432L12.3825 69.9425C12.4898 70.2629 12.6005 70.5817 12.7145 70.899ZM12.0715 68.9784L15.7714 67.8574C15.6826 67.5619 15.5969 67.265 15.5145 66.9668L11.7822 68.0086C11.8752 68.3333 11.9717 68.6566 12.0715 68.9784ZM11.5137 67.0303L15.2769 66.0687C15.2015 65.7698 15.1292 65.4697 15.0601 65.1683L11.2676 66.0493C11.3462 66.3777 11.4282 66.7047 11.5137 67.0303ZM11.0425 65.06L14.8628 64.2606C14.8006 63.9587 14.7417 63.6555 14.6861 63.3512L10.8397 64.0685C10.9038 64.4003 10.9714 64.7308 11.0425 65.06ZM10.6585 63.0708L14.5293 62.4363C14.4806 62.1315 14.4351 61.8257 14.3929 61.5187L10.4993 62.0698C10.5488 62.4047 10.6019 62.7383 10.6585 63.0708ZM10.3622 61.0659L14.2769 60.5987C14.2415 60.2915 14.2095 59.9833 14.1809 59.6741L10.2468 60.057C10.2816 60.3944 10.3201 60.7307 10.3622 61.0659ZM10.1538 59.0493L14.1056 58.7509C14.0838 58.4422 14.0653 58.1325 14.0502 57.822L10.0825 58.0352C10.1026 58.3743 10.1264 58.7123 10.1538 59.0493ZM10.0334 57.0245L14.0153 56.8962C14.0071 56.5872 14.0021 56.2773 14.0005 55.9666L10.0061 56.0095C10.0116 56.3487 10.0207 56.6871 10.0334 57.0245ZM10.0002 55.3748C10.0005 55.2466 10.0014 55.1184 10.0027 54.9904L14.006 55.0334C14.0112 54.7229 14.0198 54.4132 14.0317 54.1043L10.0245 53.9752C10.0354 53.6372 10.0499 53.3001 10.068 52.964L14.0774 53.1794C14.0961 52.8694 14.1182 52.5602 14.1436 52.252L10.1336 51.9492C10.159 51.6119 10.1881 51.2756 10.2207 50.9404L14.2297 51.3306C14.262 51.0222 14.2976 50.7148 14.3365 50.4084L10.3301 49.9302C10.3703 49.594 10.414 49.2588 10.4613 48.9248L14.4632 49.4912C14.5089 49.1853 14.5579 48.8806 14.6101 48.5769L10.6144 47.922C10.6692 47.5875 10.7276 47.2542 10.7896 46.9221L14.7773 47.6658C14.8364 47.3629 14.8987 47.0611 14.9642 46.7606L10.9862 45.9282C11.0557 45.5962 11.1287 45.2655 11.2052 44.9361L15.1717 45.8576C15.244 45.5579 15.3196 45.2595 15.3983 44.9623L11.4452 43.9521C11.5291 43.6235 11.6166 43.2963 11.7076 42.9706L15.6455 44.0698C15.7311 43.7735 15.8199 43.4786 15.9118 43.1851L11.9908 41.9972C12.089 41.673 12.1907 41.3503 12.2958 41.0291L16.1979 42.3057C16.2965 42.0135 16.3983 41.7227 16.5032 41.4334L12.6218 40.0684C12.7341 39.7491 12.8498 39.4314 12.9688 39.1154L16.8277 40.5685C16.9392 40.281 17.0538 39.995 17.1714 39.7105L13.3369 38.1695C13.463 37.8557 13.5925 37.5435 13.7252 37.2331L17.5335 38.8615C17.6577 38.5792 17.7848 38.2985 17.9149 38.0195L14.1347 36.3039C14.2744 35.996 14.4174 35.6899 14.5636 35.3856L18.3141 37.1877C18.4505 36.9113 18.5899 36.6366 18.7321 36.3636L15.0134 34.4753C15.1666 34.1736 15.3229 33.8739 15.4824 33.5761L19.1677 35.55C19.316 35.2801 19.4672 35.012 19.6213 34.7458L15.9713 32.6868C16.1376 32.3921 16.3069 32.0994 16.4794 31.8088L20.0922 33.9521C20.2522 33.6892 20.415 33.4281 20.5805 33.169L17.0065 30.9419C17.1854 30.6547 17.3675 30.3696 17.5525 30.0867L21.0858 32.3969C21.257 32.1414 21.431 31.8879 21.6077 31.6364L18.1168 29.2438C18.3081 28.9647 18.5023 28.6877 18.6995 28.4131L22.1462 30.8873C22.3284 30.6396 22.5132 30.3941 22.7006 30.1506L19.2999 27.5956C19.5032 27.3251 19.7093 27.0568 19.9183 26.7909L23.2713 29.426C23.464 29.1867 23.6593 28.9495 23.8572 28.7145L20.5536 26.0002C20.7684 25.7389 20.986 25.4798 21.2063 25.2233L24.4586 28.0158C24.6615 27.7852 24.8669 27.5569 25.0748 27.3308L21.8755 24.4608C22.1013 24.209 22.3299 23.9597 22.5611 23.7129L25.7057 26.6594C25.9184 26.438 26.1335 26.2189 26.351 26.0021L23.2628 22.9802C23.4993 22.7384 23.7385 22.4993 23.9802 22.2628L27.0102 25.3592C27.2322 25.1474 27.4565 24.938 27.6831 24.731L24.713 21.5611C24.9597 21.3299 25.209 21.1013 25.4608 20.8755L28.3693 24.1178C28.6002 23.916 28.8332 23.7167 29.0685 23.5199L26.2233 20.2063C26.4799 19.986 26.7389 19.7684 27.0003 19.5536L29.7804 22.9374C30.0196 22.746 30.261 22.5572 30.5044 22.371L27.7909 18.9182C28.0568 18.7093 28.3251 18.5031 28.5956 18.2999L31.2406 21.8204C31.4877 21.6398 31.7369 21.4618 31.988 21.2865L29.4131 17.6995C29.6878 17.5023 29.9647 17.308 30.2438 17.1167L32.747 20.769C33.0015 20.5994 33.258 20.4326 33.5164 20.2685L31.0867 16.5524C31.3697 16.3674 31.6548 16.1854 31.9419 16.0065L34.2965 19.785C34.558 19.6268 34.8214 19.4715 35.0866 19.3189L32.8088 15.4794C33.0994 15.3069 33.3921 15.1376 33.6868 14.9713L35.8863 18.8704C36.1543 18.7239 36.4241 18.5803 36.6956 18.4395L34.5762 14.4824C34.8739 14.3229 35.1737 14.1665 35.4753 14.0134L37.5133 18.0269C37.7873 17.8923 38.0631 17.7606 38.3405 17.6319L36.3856 13.5636C36.6899 13.4174 36.996 13.2744 37.304 13.1346L39.1743 17.256C39.4538 17.1337 39.7348 17.0143 40.0174 16.898L38.2331 12.7252C38.5435 12.5925 38.8557 12.463 39.1695 12.3369L40.8664 16.5591C41.1506 16.4493 41.4362 16.3425 41.7234 16.2388L40.1154 11.9688C40.4315 11.8498 40.7492 11.7341 41.0684 11.6218L42.5862 15.9376C42.8746 15.8405 43.1643 15.7464 43.4554 15.6554L42.0291 11.2958C42.3503 11.1907 42.673 11.089 42.9972 10.9908L44.3307 15.3923C44.6226 15.3081 44.9158 15.2269 45.2103 15.1489L43.9706 10.7075C44.2963 10.6166 44.6235 10.5291 44.9522 10.4452L46.0968 14.9243C46.3916 14.853 46.6877 14.7848 46.9849 14.7198L45.9362 10.2052C46.2655 10.1287 46.5962 10.0557 46.9282 9.98619L47.8799 14.5343C48.1775 14.476 48.4763 14.4209 48.7761 14.3689L47.9221 9.78955C48.2542 9.72763 48.5875 9.66923 48.922 9.6144L49.6773 14.2228C49.9775 14.1775 50.2786 14.1353 50.5808 14.0964L49.9248 9.46128C50.2588 9.414 50.594 9.37028 50.9302 9.33014L51.4864 13.9897C51.7887 13.9574 52.0919 13.9283 52.3961 13.9025L51.9404 9.2207C52.2757 9.18808 52.6119 9.15902 52.9492 9.13355L53.3042 13.8351C53.6078 13.8159 53.9123 13.7999 54.2176 13.7871L53.964 9.06798C54.3001 9.04991 54.6372 9.03542 54.9752 9.02453L55.1278 13.7589C55.4178 13.753 55.7085 13.75 56 13.75L56.0414 13.75L55.9904 9.00273C56.1184 9.00136 56.2466 9.0005 56.3748 9.00016C56.3332 9.00005 56.2916 9 56.25 9C30.7068 9 10 29.7068 10 55.25C10 55.2916 10.0001 55.3332 10.0002 55.3748ZM58.0084 101.467C57.6745 101.48 57.3398 101.489 57.0042 101.494L56.9639 97.7392C57.2725 97.7322 57.5803 97.7219 57.8873 97.7084L58.0084 101.467ZM59.0085 101.419C59.3439 101.399 59.6783 101.376 60.0117 101.349L59.7277 97.5868C59.4215 97.6138 59.1143 97.6374 58.8063 97.6577L59.0085 101.419ZM61.0088 101.258C61.3427 101.224 61.6754 101.186 62.0071 101.145L61.5583 97.3855C61.2542 97.4257 60.9489 97.4626 60.6427 97.4963L61.0088 101.258ZM63.0005 101.011C63.3318 100.962 63.662 100.91 63.991 100.855L63.3763 97.1044C63.0749 97.1578 62.7724 97.208 62.4689 97.2549L63.0005 101.011ZM64.9785 100.678C65.3069 100.615 65.634 100.549 65.9599 100.479L65.1784 96.7441C64.8802 96.8106 64.5809 96.8739 64.2804 96.934L64.9785 100.678ZM66.9393 100.259C67.2644 100.182 67.5881 100.101 67.9105 100.018L66.9619 96.3051C66.6672 96.3846 66.3713 96.4609 66.0741 96.5341L66.9393 100.259ZM68.8793 99.7546C69.2009 99.6635 69.5211 99.569 69.8398 99.4712L68.7239 95.7881C68.4329 95.8805 68.1406 95.9698 67.8469 96.056L68.8793 99.7546ZM70.795 99.1666C71.1125 99.0615 71.4284 98.953 71.7427 98.8413L70.4602 95.1944C70.1735 95.2996 69.8853 95.4017 69.5957 95.5007L70.795 99.1666ZM72.6829 98.4956C72.9955 98.3767 73.3065 98.2545 73.6159 98.1291L72.1676 94.5254C71.8857 94.643 71.6023 94.7577 71.3174 94.8694L72.6829 98.4956ZM74.5395 97.7429C74.8467 97.6105 75.1521 97.4749 75.4558 97.3361L73.8431 93.7824C73.5666 93.9123 73.2885 94.0393 73.0088 94.1633L74.5395 97.7429ZM76.3615 96.9102C76.6626 96.7645 76.9619 96.6158 77.2593 96.4639L75.4836 92.967C75.2132 93.1089 74.941 93.2479 74.6672 93.384L76.3615 96.9102ZM78.1459 95.9988C78.4402 95.8403 78.7326 95.6788 79.0229 95.5142L77.0863 92.0811C76.8226 92.2345 76.557 92.3851 76.2896 92.5329L78.1459 95.9988ZM79.8888 95.0109C80.1758 94.8399 80.4607 94.6659 80.7436 94.489L78.6483 91.1264C78.3916 91.2911 78.133 91.453 77.8725 91.6122L79.8888 95.0109ZM81.5871 93.9486C81.8663 93.7654 82.1434 93.5793 82.4183 93.3903L80.1667 90.105C79.9175 90.2806 79.6663 90.4536 79.4132 90.6238L81.5871 93.9486ZM83.2377 92.8139C83.5086 92.6189 83.7774 92.421 84.0439 92.2204L81.6387 89.019C81.3975 89.2052 81.1542 89.3888 80.9089 89.5698L83.2377 92.8139ZM84.8377 91.6092C85.1 91.4026 85.36 91.1933 85.6176 90.9813L83.0618 87.8706C82.829 88.067 82.5939 88.2609 82.3568 88.4523L84.8377 91.6092ZM86.3842 90.3366C86.6374 90.1189 86.8882 89.8986 87.1365 89.6756L84.4333 86.6622C84.2092 86.8685 83.9828 87.0723 83.7543 87.2737L86.3842 90.3366ZM87.8745 88.9986C88.118 88.7703 88.3591 88.5393 88.5977 88.3059L85.7506 85.3963C85.5357 85.612 85.3184 85.8253 85.0989 86.0363L87.8745 88.9986ZM89.3058 87.5977C89.5393 87.3592 89.7703 87.1181 89.9986 86.8745L87.0112 84.0754C86.8059 84.3 86.5982 84.5224 86.3881 84.7426L89.3058 87.5977ZM90.6756 86.1365C90.8986 85.8882 91.1189 85.6374 91.3366 85.3842L88.2129 82.7021C88.0176 82.9352 87.8198 83.1663 87.6196 83.3951L90.6756 86.1365ZM91.9813 84.6177C92.1933 84.36 92.4026 84.1 92.6091 83.8377L89.3534 81.279C89.1685 81.5203 88.981 81.7594 88.791 81.9965L91.9813 84.6177ZM93.2203 83.0439C93.421 82.7774 93.6189 82.5086 93.8139 82.2377L90.4306 79.809C90.2564 80.0578 90.0796 80.3047 89.9002 80.5495L93.2203 83.0439ZM94.3903 81.4183C94.5793 81.1434 94.7654 80.8663 94.9486 80.5871L91.4426 78.2948C91.2794 78.5508 91.1135 78.8049 90.945 79.057L94.3903 81.4183ZM95.489 79.7437C95.6659 79.4608 95.8399 79.1758 96.0109 78.8888L92.3874 76.7392C92.2355 77.0019 92.0809 77.2628 91.9235 77.5219L95.489 79.7437ZM96.5142 78.023C96.6788 77.7326 96.8403 77.4402 96.9987 77.146L93.2633 75.1452C93.123 75.4142 92.9799 75.6814 92.834 75.947L96.5142 78.023ZM97.4639 76.2593C97.6158 75.9619 97.7645 75.6626 97.9101 75.3616L94.0686 73.5157C93.9402 73.7905 93.8088 74.0636 93.6746 74.3352L97.4639 76.2593ZM98.3361 74.4559C98.4749 74.1522 98.6105 73.8467 98.7429 73.5395L94.8017 71.8542C94.6854 72.1342 94.5661 72.4126 94.444 72.6895L98.3361 74.4559ZM99.1291 72.6159C99.2545 72.3066 99.3767 71.9955 99.4956 71.6829L95.4614 70.1638C95.3575 70.4483 95.2505 70.7314 95.1406 71.013L99.1291 72.6159ZM99.8413 70.7428C99.953 70.4284 100.061 70.1125 100.167 69.795L96.0466 68.4471C95.9552 68.7357 95.8608 69.0228 95.7633 69.3086L99.8413 70.7428ZM100.471 68.8398C100.569 68.5211 100.664 68.2009 100.755 67.8793L96.5563 66.7074C96.4776 66.9994 96.3959 67.2901 96.3111 67.5794L100.471 68.8398ZM101.018 66.9106C101.101 66.5882 101.182 66.2644 101.259 65.9393L96.9898 64.9476C96.924 65.2424 96.855 65.536 96.783 65.8284L101.018 66.9106ZM101.479 64.9599C101.549 64.634 101.615 64.3069 101.678 63.9785L97.3475 63.171C97.4028 62.8744 97.4549 62.5767 97.5039 62.2779L101.855 62.9911C101.91 62.662 101.962 62.3319 102.011 62.0005L97.6407 61.382C97.683 61.0835 97.7221 60.784 97.7579 60.4835L102.145 61.0071C102.186 60.6755 102.224 60.3427 102.258 60.0089L97.8557 59.5804C97.8849 59.2807 97.9109 58.98 97.9337 58.6784L102.349 59.0118C102.376 58.6783 102.399 58.3439 102.419 58.0085L97.9923 57.7706C98.0085 57.4698 98.0215 57.1681 98.0312 56.8655L102.467 57.0084C102.48 56.6746 102.489 56.3398 102.494 56.0042L98.0507 55.9565C98.0524 55.8045 98.0532 55.6524 98.0532 55.5C98.0532 55.3476 98.0524 55.1955 98.0507 55.0435L102.499 54.9958C102.498 54.66 102.492 54.3251 102.483 53.9911L98.0312 54.1345C98.0215 53.8319 98.0085 53.5302 97.9923 53.2295L102.446 52.9901C102.43 52.6543 102.41 52.3194 102.387 51.9854L97.9337 52.3217C97.9109 52.02 97.8849 51.7193 97.8558 51.4196L102.306 50.9865C102.276 50.6519 102.241 50.3184 102.204 49.9859L97.7579 50.5166C97.7221 50.216 97.683 49.9165 97.6407 49.618L102.08 48.9897C102.035 48.6573 101.986 48.3261 101.934 47.996L97.5039 48.7221C97.4549 48.4233 97.4028 48.1256 97.3475 47.829L101.767 47.0048C101.708 46.675 101.645 46.3465 101.579 46.0193L97.1719 46.9414C97.1098 46.6449 97.0446 46.3496 96.9763 46.0555L101.368 45.0353C101.295 44.7085 101.217 44.3831 101.137 44.059L96.762 45.1769C96.6871 44.8835 96.609 44.5914 96.5278 44.3006L100.883 43.0848C100.795 42.7612 100.704 42.4391 100.609 42.1184L96.2749 43.4315C96.1872 43.1421 96.0964 42.854 96.0026 42.5673L100.314 41.1569C100.211 40.8372 100.106 40.5191 99.997 40.2025L95.7116 41.7096C95.6113 41.4246 95.508 41.1409 95.4018 40.8587L99.6596 39.2553C99.5435 38.9402 99.424 38.6268 99.3013 38.3149L95.0731 40.0142C94.9605 39.7339 94.8449 39.4552 94.7263 39.178L98.9228 37.3836C98.7929 37.0737 98.6597 36.7656 98.5233 36.4592L94.3607 38.3483C94.2359 38.0733 94.1082 37.7999 93.9776 37.5281L98.1044 35.5451C97.961 35.2412 97.8145 34.939 97.6647 34.6387L93.5759 36.715C93.4391 36.4456 93.2994 36.1778 93.1569 35.9118L97.2059 33.7431C97.0494 33.4458 96.8898 33.1504 96.7271 32.8569L92.7201 35.1173C92.5716 34.854 92.4203 34.5925 92.2662 34.3328L96.2293 31.9816C96.06 31.6914 95.8877 31.4033 95.7124 31.1171L91.7951 33.5581C91.6352 33.3015 91.4725 33.0467 91.3072 32.7938L95.1766 30.2639C94.9948 29.9813 94.8101 29.7009 94.6224 29.4226L90.8028 32.0404C90.6318 31.7909 90.4582 31.5434 90.2819 31.2978L94.0498 28.5931C93.8559 28.3186 93.6591 28.0464 93.4594 27.7764L89.7452 30.567C89.5634 30.3252 89.3792 30.0853 89.1923 29.8476L92.851 26.9722C92.6454 26.7064 92.4369 26.4429 92.2255 26.1817L88.6242 29.1406C88.4322 28.9069 88.2376 28.6753 88.0406 28.4459L91.5827 25.4045C91.3656 25.1477 91.1457 24.8934 90.9232 24.6414L87.4422 27.764C87.2402 27.5389 87.0359 27.316 86.8291 27.0953L90.2471 23.8927C90.019 23.6455 89.7882 23.4008 89.5548 23.1586L86.2016 26.44C85.9901 26.2238 85.7762 26.01 85.56 25.7984L88.8467 22.4397C88.6081 22.2026 88.3668 21.968 88.1231 21.7361L84.9047 25.1709C84.6841 24.9642 84.4611 24.7598 84.236 24.5578L87.3842 21.0483C87.1354 20.8217 86.8842 20.5978 86.6305 20.3766L83.5542 23.9594C83.3247 23.7624 83.0931 23.5679 82.8594 23.3758L85.8621 19.7212C85.6037 19.5056 85.3429 19.2928 85.0798 19.0828L82.1524 22.8077C81.9147 22.6209 81.6749 22.4366 81.433 22.2548L84.2833 18.4611C84.0157 18.2569 83.7459 18.0556 83.4738 17.8571L80.7022 21.7181C80.4566 21.5418 80.2091 21.3682 79.9596 21.1972L82.6508 17.2705C82.3745 17.0781 82.096 16.8887 81.8154 16.7022L79.2062 20.6928C78.9533 20.5275 78.6985 20.3648 78.4419 20.2049L80.9674 16.1519C80.6829 15.9717 80.3963 15.7944 80.1076 15.6203L77.6673 19.7338C77.4075 19.5798 77.146 19.4284 76.8827 19.2799L79.2364 15.1075C78.9441 14.9398 78.6498 14.7752 78.3535 14.6137L76.0882 18.8431C75.8222 18.7006 75.5544 18.5609 75.285 18.4241L77.4606 14.1396C77.1611 13.9848 76.8596 13.8331 76.5563 13.6846L74.473 18.0201C88.4072 24.8554 98 39.1824 98 55.75C98 58.5949 97.7171 61.3737 97.178 64.0599L101.479 64.9599ZM75.6436 13.2502C75.3375 13.1086 75.0296 12.9703 74.7199 12.8353L72.8289 17.2574C73.1062 17.3788 73.3818 17.5031 73.6558 17.6302L75.6436 13.2502ZM73.7886 12.4413C73.4766 12.3133 73.1629 12.1887 72.8475 12.0674L71.1532 16.5667C71.4354 16.6759 71.7161 16.7881 71.9954 16.9032L73.7886 12.4413ZM71.899 11.7145C71.5818 11.6005 71.2629 11.4898 70.9425 11.3825L69.4485 15.9493C69.7352 16.0461 70.0205 16.146 70.3044 16.2488L71.899 11.7145ZM69.9784 11.0716C69.6566 10.9717 69.3333 10.8752 69.0086 10.7822L67.7178 15.4064C68.0084 15.4906 68.2977 15.5779 68.5857 15.6683L69.9784 11.0716ZM68.0303 10.5137C67.7047 10.4282 67.3777 10.3462 67.0494 10.2676L65.9642 14.9391C66.2581 15.0106 66.5508 15.0852 66.8423 15.1628L68.0303 10.5137ZM66.06 10.0425C65.7308 9.97138 65.4003 9.90378 65.0685 9.83973L64.1905 14.5482C64.4876 14.6069 64.7836 14.6688 65.0784 14.7337L66.06 10.0425ZM64.0708 9.65848C63.7383 9.60186 63.4047 9.54879 63.0699 9.4993L62.3996 14.2345C62.6997 14.2803 62.9987 14.3294 63.2967 14.3816L64.0708 9.65848ZM62.066 9.36216C61.7308 9.32011 61.3944 9.28164 61.057 9.2468L60.5946 13.9984C60.8972 14.0314 61.1989 14.0675 61.4996 14.1068L62.066 9.36216ZM60.0493 9.15381C59.7123 9.12641 59.3743 9.10262 59.0353 9.08249L58.7795 13.8405C59.084 13.8604 59.3875 13.8835 59.6902 13.9099L60.0493 9.15381ZM58.0245 9.03341L57.8712 13.7909C57.5678 13.7776 57.2636 13.7676 56.9585 13.7607L57.0096 9.00611C57.3488 9.01157 57.6871 9.02069 58.0245 9.03341ZM56.25 102.5C82.3455 102.5 103.5 81.3455 103.5 55.25C103.5 29.1545 82.3455 8 56.25 8C30.1545 8 9 29.1545 9 55.25C9 81.3455 30.1545 102.5 56.25 102.5ZM56 96.7618C43.5967 96.7618 32.4794 91.2557 24.959 82.5544L24.9594 82.5541C24.7624 82.3247 24.5678 82.0931 24.3758 81.8594L24.3733 81.8614C24.1807 81.6284 23.9906 81.3933 23.8031 81.156L23.8077 81.1524C23.6208 80.9147 23.4366 80.6748 23.2548 80.433L23.2484 80.4378C23.0663 80.1966 22.8868 79.9533 22.71 79.708L22.7181 79.7022C22.5418 79.4566 22.3682 79.2091 22.1972 78.9596L22.1875 78.9662C22.0162 78.7173 21.8476 78.4663 21.6818 78.2134L21.6928 78.2062C21.5275 77.9533 21.3648 77.6985 21.2049 77.4419L21.1927 77.4495C21.0326 77.1932 20.8752 76.9351 20.7207 76.675L20.7338 76.6672C20.5797 76.4075 20.4284 76.146 20.2799 75.8827L20.266 75.8905C20.1174 75.6274 19.9716 75.3625 19.8287 75.0959L19.8431 75.0882C19.7006 74.8222 19.5609 74.5544 19.4241 74.285L19.4095 74.2924C19.2727 74.023 19.1387 73.7518 19.0077 73.4789L19.0224 73.4719C18.8918 73.2001 18.7641 72.9267 18.6393 72.6517L18.6248 72.6583C18.5002 72.3831 18.3784 72.1063 18.2597 71.8279L18.2737 71.822C18.1551 71.5448 18.0395 71.2661 17.9269 70.9858L17.9137 70.9911C17.8014 70.7109 17.6922 70.4291 17.586 70.1459L17.5982 70.1413C17.492 69.8591 17.3887 69.5754 17.2884 69.2904L17.2775 69.2943C17.1779 69.0095 17.0814 68.7234 16.9879 68.4358L16.9974 68.4327C16.9036 68.146 16.8128 67.8579 16.7251 67.5685L16.7174 67.5708C16.6307 67.2822 16.5471 66.9922 16.4666 66.701L16.4722 66.6994C16.391 66.4086 16.3129 66.1165 16.238 65.8231L16.2346 65.8239C16.1609 65.5321 16.0904 65.239 16.0229 64.9447L16.0237 64.9445C16.0054 64.8657 15.9873 64.7868 15.9694 64.7078C15.3271 61.8245 14.9882 58.8268 14.9882 55.75C14.9882 33.0998 33.3498 14.7382 56 14.7382C78.6502 14.7382 97.0118 33.0998 97.0118 55.75C97.0118 78.4002 78.6502 96.7618 56 96.7618Z" fill="url(#paint1_linear_2255_96859)"/>
<defs>
<filter id="filter0_d_2255_96859" x="41.5411" y="55.9163" width="8.40114" height="17.5674" filterUnits="userSpaceOnUse" color-interpolation-filters="sRGB">
<feFlood flood-opacity="0" result="BackgroundImageFix"/>
<feColorMatrix in="SourceAlpha" type="matrix" values="0 0 0 0 0 0 0 0 0 0 0 0 0 0 0 0 0 0 127 0" result="hardAlpha"/>
<feOffset dy="1"/>
<feGaussianBlur stdDeviation="1"/>
<feColorMatrix type="matrix" values="0 0 0 0 0.620358 0 0 0 0 0.620358 0 0 0 0 0.620358 0 0 0 0.5 0"/>
<feBlend mode="normal" in2="BackgroundImageFix" result="effect1_dropShadow_2255_96859"/>
<feBlend mode="normal" in="SourceGraphic" in2="effect1_dropShadow_2255_96859" result="shape"/>
</filter>
<filter id="filter1_d_2255_96859" x="28.6954" y="53.9305" width="8.43448" height="18.6528" filterUnits="userSpaceOnUse" color-interpolation-filters="sRGB">
<feFlood flood-opacity="0" result="BackgroundImageFix"/>
<feColorMatrix in="SourceAlpha" type="matrix" values="0 0 0 0 0 0 0 0 0 0 0 0 0 0 0 0 0 0 127 0" result="hardAlpha"/>
<feOffset dy="1"/>
<feGaussianBlur stdDeviation="1"/>
<feColorMatrix type="matrix" values="0 0 0 0 0.620358 0 0 0 0 0.620358 0 0 0 0 0.620358 0 0 0 0.5 0"/>
<feBlend mode="normal" in2="BackgroundImageFix" result="effect1_dropShadow_2255_96859"/>
<feBlend mode="normal" in="SourceGraphic" in2="effect1_dropShadow_2255_96859" result="shape"/>
</filter>
<linearGradient id="paint0_linear_2255_96859" x1="27.6794" y1="83.6609" x2="81.2433" y2="83.6609" gradientUnits="userSpaceOnUse">
<stop stop-color="#701C1C"/>
<stop offset="1" stop-color="#A30606"/>
</linearGradient>
<linearGradient id="paint1_linear_2255_96859" x1="56.25" y1="8" x2="56.25" y2="102.5" gradientUnits="userSpaceOnUse">
<stop stop-color="#463D3D"/>
<stop offset="1" stop-color="#302A2A"/>
</linearGradient>
</defs>
</svg>
