<svg width="415" height="512" viewBox="0 0 415 512" fill="none" xmlns="http://www.w3.org/2000/svg">
<g opacity="0.2">
<path d="M153.1 381.941C149.429 386.859 150.44 393.822 155.359 397.493C160.277 401.164 167.24 400.153 170.911 395.234C174.581 390.316 173.57 383.353 168.652 379.682C163.734 376.012 156.771 377.023 153.1 381.941Z" fill="url(#paint0_linear_1911_93535)"/>
<path d="M374.104 68.2016C388.732 67.7848 400.253 55.5883 399.836 40.96C399.419 26.3316 387.223 14.8109 372.594 15.2276C357.966 15.6444 346.445 27.8409 346.862 42.4692C347.279 57.0976 359.475 68.6183 374.104 68.2016Z" fill="url(#paint1_linear_1911_93535)"/>
<path d="M398.679 49.5056C395.886 58.5941 388.319 65.6453 378.836 67.6415C379.291 64.5817 380.028 61.0824 381.174 57.1662C384.204 46.7865 392.621 47.447 398.679 49.5056Z" fill="#FF9797"/>
<path d="M399.836 40.9579C399.882 42.5984 399.781 44.2062 399.536 45.7708C396.479 37.9967 384.062 36.4855 378.476 42.7478C368.207 54.2615 355.599 53.4115 347.244 46.2661C347.029 45.025 346.899 43.7606 346.862 42.4671C346.704 36.92 348.261 31.7291 351.052 27.3925C353.541 28.8371 356.238 30.9967 359.075 34.1469C370.878 47.2556 373.977 21.6855 392.918 23.8475C397.057 28.3767 399.647 34.3492 399.836 40.9579Z" fill="#FF9797"/>
<path d="M204.297 212.991C231.218 232.531 268.882 226.547 288.421 199.626C307.96 172.705 301.976 135.041 275.055 115.502C248.134 95.9624 210.471 101.946 190.931 128.867C171.392 155.788 177.376 193.452 204.297 212.991Z" fill="url(#paint2_radial_1911_93535)"/>
<path d="M277.062 188.08C279.367 178.271 290.125 167.155 300.003 165C300.003 168.14 299.204 179.701 297.515 183.696C293.042 194.287 283.207 190.997 277.062 188.08Z" fill="#E6DD91" fill-opacity="0.7"/>
<path d="M291.502 133.5C282.104 133.744 271.77 150.093 273.794 160.806C277.516 180.503 253.96 217.259 241.502 225C223.002 225 207.502 217 203.002 211.262C203.002 211.262 247.448 185.058 252.357 182.793C272.786 173.368 251.922 136.093 267.002 111.5C278.108 114.724 286.002 123.5 291.502 133.5Z" fill="#E6DD91" fill-opacity="0.7"/>
<path d="M245.004 104.5C245.004 104.5 245.004 110.5 244.504 114C242.504 132.5 248.479 146.787 250.504 157.5C254.226 177.197 205.962 194.759 193.504 202.5C192.176 202.165 187.387 193.543 184.504 188C181.62 182.457 180.004 172 180.004 172C180.004 172 200.45 161.899 205.359 159.634C225.788 150.209 203.924 132.593 219.004 108C226.354 104.532 236.504 103 245.004 104.5Z" fill="#E6DD91" fill-opacity="0.7"/>
<path d="M297.239 181.999C296.308 185.028 295.125 188.01 293.688 190.913C302.548 199.722 307.116 206.171 305.485 208.419C301.938 213.306 268.51 198.988 233.109 173.293C197.708 147.599 173.734 120.255 177.281 115.368C178.913 113.12 186.464 115.468 197.586 121.162C199.896 118.893 202.364 116.843 204.956 115.019C178.148 101.457 157.299 96.6917 151.691 104.418C142.965 116.44 174.424 154.157 221.958 188.657C269.492 223.157 315.101 241.377 323.827 229.355C329.435 221.629 318.442 203.283 297.239 181.999Z" fill="url(#paint3_linear_1911_93535)"/>
<path d="M179.5 160C179.5 157.6 180.333 153.833 181 152C206.5 175.5 248 205.5 268 217.5C265.891 218.38 263.667 219.5 262.5 219.5C249 214 227 199.5 216.5 192C207.698 185.713 179.5 163 179.5 160Z" fill="#D5CF95"/>
<path d="M323.827 229.355C315.101 241.377 269.491 223.157 221.958 188.657C174.424 154.157 142.965 116.44 151.691 104.418C156.248 98.139 170.877 100.112 190.591 108.357C180.454 105.543 173.171 105.762 170.354 109.644C162.907 119.904 189.458 151.881 229.662 181.061C269.869 210.243 308.501 225.576 315.947 215.317C318.144 212.29 317.382 207.376 314.183 201.199C323.761 213.891 327.649 224.089 323.827 229.355Z" fill="url(#paint4_linear_1911_93535)"/>
<path d="M123.453 245.221C121.626 230.701 108.375 220.411 93.8555 222.237C79.3356 224.063 69.0452 237.314 70.8713 251.834C72.6974 266.354 85.9485 276.644 100.468 274.818C114.988 272.992 125.279 259.741 123.453 245.221Z" fill="url(#paint5_linear_1911_93535)"/>
<path d="M102.473 222.563C111.788 224.466 119.536 231.317 122.438 240.563C119.349 240.406 115.795 240.01 111.786 239.247C101.163 237.232 101.008 228.791 102.473 222.563Z" fill="url(#paint6_linear_1911_93535)"/>
<path d="M93.8526 222.236C95.481 222.032 97.0911 221.978 98.6721 222.07C91.2291 225.863 90.923 238.368 97.6949 243.324C110.146 252.434 110.516 265.065 104.21 274.071C102.995 274.404 101.749 274.656 100.466 274.818C94.9595 275.51 89.6427 274.461 85.0569 272.101C86.2547 269.485 88.144 266.591 91.0058 263.464C102.915 250.451 77.1649 249.834 77.4895 230.773C81.5977 226.216 87.2924 223.061 93.8526 222.236Z" fill="url(#paint7_linear_1911_93535)"/>
<path d="M383.754 219.923C393.306 219.65 400.829 211.686 400.556 202.134C400.284 192.582 392.32 185.059 382.768 185.332C373.216 185.604 365.693 193.568 365.965 203.12C366.238 212.672 374.202 220.195 383.754 219.923Z" fill="url(#paint8_radial_1911_93535)"/>
<path d="M312.421 377.766C332.306 377.2 347.966 360.621 347.4 340.736C346.833 320.851 330.254 305.191 310.37 305.757C290.485 306.324 274.824 322.903 275.391 342.787C275.958 362.672 292.537 378.333 312.421 377.766Z" fill="url(#paint9_radial_1911_93535)"/>
<path d="M333.828 313.689C342.178 319.329 348.4 333.227 346.904 343.226C344.24 341.298 333.791 337.364 330.657 334.364C322.347 326.419 328.918 318.396 333.828 313.689Z" fill="#B7C5FF"/>
<path d="M323.599 307.863C325.798 308.567 328.651 309.979 330.008 310.977C321.175 310.052 312.557 321.509 315.73 329.846C321.564 345.177 303.547 368.032 292.713 372.414C291.422 372.005 285.761 367.601 282.392 363.076C279.019 358.545 276.554 350.457 276.554 350.457C276.554 350.457 293.748 345.073 298.11 343.94C316.261 339.224 293.652 323.774 304.97 306.961C311.492 305.206 316.301 305.526 323.599 307.863Z" fill="#B7C5FF"/>
</g>
<defs>
<linearGradient id="paint0_linear_1911_93535" x1="157.809" y1="401.873" x2="163.636" y2="382.739" gradientUnits="userSpaceOnUse">
<stop stop-color="#585BF2"/>
<stop offset="1" stop-color="#64D6FB"/>
</linearGradient>
<linearGradient id="paint1_linear_1911_93535" x1="372.594" y1="15.2276" x2="374.104" y2="68.2016" gradientUnits="userSpaceOnUse">
<stop offset="0.015625" stop-color="#FAC9C9"/>
<stop offset="0.458333" stop-color="#FCD5D5"/>
<stop offset="1" stop-color="#F38A8A"/>
</linearGradient>
<radialGradient id="paint2_radial_1911_93535" cx="0" cy="0" r="1" gradientUnits="userSpaceOnUse" gradientTransform="translate(239.999 130) rotate(96.9749) scale(94.7008 101.223)">
<stop stop-color="#EDE9C8" stop-opacity="0.85"/>
<stop offset="0.208333" stop-color="#EDE490"/>
<stop offset="0.62151" stop-color="#E8DF92"/>
<stop offset="0.796875" stop-color="#CBC69E"/>
</radialGradient>
<linearGradient id="paint3_linear_1911_93535" x1="249.999" y1="133.5" x2="241.999" y2="195.5" gradientUnits="userSpaceOnUse">
<stop stop-color="#C4E8F8"/>
<stop offset="0.567708" stop-color="#51B6FE"/>
</linearGradient>
<linearGradient id="paint4_linear_1911_93535" x1="228.757" y1="179.379" x2="222.999" y2="193" gradientUnits="userSpaceOnUse">
<stop stop-color="#38ACFF"/>
<stop offset="1" stop-color="#177AEF"/>
</linearGradient>
<linearGradient id="paint5_linear_1911_93535" x1="70.8713" y1="251.834" x2="102.501" y2="215.5" gradientUnits="userSpaceOnUse">
<stop stop-color="#FF7EB8"/>
<stop offset="0.609375" stop-color="#FBD1E4"/>
</linearGradient>
<linearGradient id="paint6_linear_1911_93535" x1="102.322" y1="232.837" x2="121.168" y2="230.467" gradientUnits="userSpaceOnUse">
<stop stop-color="#FFC4DF" stop-opacity="0.63"/>
<stop offset="1" stop-color="#FFC4DF" stop-opacity="0.26"/>
</linearGradient>
<linearGradient id="paint7_linear_1911_93535" x1="79.7932" y1="250.711" x2="106.564" y2="247.344" gradientUnits="userSpaceOnUse">
<stop stop-color="#FFC4DF" stop-opacity="0.63"/>
<stop offset="1" stop-color="#FFC4DF" stop-opacity="0.26"/>
</linearGradient>
<radialGradient id="paint8_radial_1911_93535" cx="0" cy="0" r="1" gradientUnits="userSpaceOnUse" gradientTransform="translate(390 215) rotate(-113.051) scale(25.5392)">
<stop stop-color="#1C57F9"/>
<stop offset="0.414123" stop-color="#6B92FD"/>
<stop offset="1" stop-color="#D2DEFF"/>
</radialGradient>
<radialGradient id="paint9_radial_1911_93535" cx="0" cy="0" r="1" gradientUnits="userSpaceOnUse" gradientTransform="translate(311.392 333.961) rotate(91.9178) scale(31.448 47.8793)">
<stop stop-color="#B3C0FC"/>
<stop offset="0.453125" stop-color="#98A8F2"/>
<stop offset="1" stop-color="#7284D8"/>
</radialGradient>
</defs>
</svg>
