<svg width="254" height="271" viewBox="0 0 254 271" fill="none" xmlns="http://www.w3.org/2000/svg">
<g opacity="0.2" clip-path="url(#clip0_1911_93562)">
<path d="M214.201 271.019C217.112 275.597 223.184 276.948 227.762 274.036C232.339 271.125 233.69 265.053 230.779 260.475C227.867 255.898 221.796 254.547 217.218 257.458C212.64 260.37 211.289 266.441 214.201 271.019Z" fill="url(#paint0_linear_1911_93562)"/>
<path d="M63.9353 49.5777C68.1845 37.3586 61.7237 24.0084 49.5046 19.7592C37.2855 15.51 23.9353 21.9708 19.6861 34.1899C15.4369 46.4089 21.8977 59.7591 34.1168 64.0084C46.3358 68.2576 59.686 61.7968 63.9353 49.5777Z" fill="url(#paint1_linear_1911_93562)"/>
<path d="M56.2021 23.3978C62.8354 28.5599 66.2862 37.0265 64.9577 45.4901C62.5721 44.1534 59.9118 42.4455 57.0356 40.2687C49.4097 34.5053 52.5988 27.7571 56.2021 23.3978Z" fill="#FF9797"/>
<path d="M49.5019 19.7582C50.8722 20.2347 52.169 20.8236 53.385 21.5172C46.0009 21.6019 40.8527 31.3888 44.2737 37.9707C50.5632 50.0726 45.9017 60.2242 37.3733 64.8848C36.2805 64.6721 35.1945 64.3831 34.1141 64.0074C29.4806 62.396 25.6801 59.4793 22.9731 55.8106C24.9482 54.2082 27.58 52.6569 31.0739 51.3021C45.6128 45.665 25.4559 35.0748 33.1903 20.1018C38.2327 18.1039 43.9816 17.8385 49.5019 19.7582Z" fill="#FF9797"/>
<path d="M109.756 162.669C112.53 154.69 108.312 145.973 100.333 143.198C92.354 140.424 83.6366 144.642 80.8619 152.621C78.0872 160.6 82.306 169.318 90.2849 172.092C98.2637 174.867 106.981 170.648 109.756 162.669Z" fill="url(#paint2_radial_1911_93562)"/>
<path d="M260.781 138.052C266.557 121.442 257.775 103.295 241.165 97.5187C224.556 91.7427 206.408 100.525 200.632 117.135C194.856 133.744 203.639 151.892 220.248 157.668C236.858 163.444 255.005 154.661 260.781 138.052Z" fill="url(#paint3_radial_1911_93562)"/>
<path d="M214.554 100.24C221.837 95.1116 235.276 94.334 243.069 98.7102C240.639 100.306 234.106 107.705 230.644 109.353C221.469 113.725 216.902 105.776 214.554 100.24Z" fill="#A7DFF7"/>
<path d="M206.528 106.864C207.8 105.268 209.863 103.354 211.113 102.546C207.576 109.555 214.337 120.273 222.223 120.27C236.723 120.263 249.952 142.328 250.171 152.657C249.427 153.596 244.011 156.891 239.213 158.254C234.41 159.618 226.952 159.115 226.952 159.115C226.952 159.115 227.903 143.216 228.336 139.256C230.139 122.776 210.272 136.608 199.932 121.975C200.531 116.034 202.305 112.161 206.528 106.864Z" fill="#A7DFF7"/>
</g>
<defs>
<linearGradient id="paint0_linear_1911_93562" x1="232.151" y1="273.387" x2="218.168" y2="262.563" gradientUnits="userSpaceOnUse">
<stop stop-color="#585BF2"/>
<stop offset="1" stop-color="#64D6FB"/>
</linearGradient>
<linearGradient id="paint1_linear_1911_93562" x1="19.6861" y1="34.1899" x2="63.9353" y2="49.5777" gradientUnits="userSpaceOnUse">
<stop offset="0.015625" stop-color="#FAC9C9"/>
<stop offset="0.458333" stop-color="#FCD5D5"/>
<stop offset="1" stop-color="#F38A8A"/>
</linearGradient>
<radialGradient id="paint2_radial_1911_93562" cx="0" cy="0" r="1" gradientUnits="userSpaceOnUse" gradientTransform="translate(107.65 155.961) rotate(177.756) scale(22.5768)">
<stop stop-color="#F0F1A4"/>
<stop offset="0.414123" stop-color="#E5E791"/>
<stop offset="0.921875" stop-color="#BBBC7D"/>
</radialGradient>
<radialGradient id="paint3_radial_1911_93562" cx="0" cy="0" r="1" gradientUnits="userSpaceOnUse" gradientTransform="translate(257.913 139.221) rotate(158.646) scale(42.1456 64.1663)">
<stop stop-color="#B3E6FC"/>
<stop offset="0.453125" stop-color="#94D3EE"/>
<stop offset="1" stop-color="#63C1EA"/>
</radialGradient>
<clipPath id="clip0_1911_93562">
<rect width="254" height="271" fill="white"/>
</clipPath>
</defs>
</svg>
