<svg width="76" height="102" viewBox="0 0 76 102" fill="none" xmlns="http://www.w3.org/2000/svg">
<g filter="url(#filter0_d_1432_80533)">
<path d="M24.6815 38.0509C24.3434 37.9662 23.9884 37.9774 23.6563 38.0832C23.3242 38.189 23.0281 38.3851 22.8012 38.6497L12.8595 50.256C11.853 51.4311 11.453 52.9744 11.7622 54.4906L14.0795 65.8508C14.3141 67.0006 15.1073 67.9395 16.2017 68.3625C17.2961 68.7856 18.5146 68.6244 19.4614 67.9316L29.5508 60.5485C29.8442 60.3337 30.0689 60.0382 30.1974 59.698C30.326 59.3578 30.3528 58.9876 30.2747 58.6324L26.0564 39.4664C25.9814 39.126 25.813 38.8132 25.5702 38.5632C25.3273 38.3131 25.0196 38.1357 24.6815 38.0509Z" fill="url(#paint0_linear_1432_80533)" shape-rendering="crispEdges"/>
</g>
<g filter="url(#filter1_d_1432_80533)">
<path d="M51.3181 38.0509C50.98 38.1358 50.6722 38.3132 50.4294 38.5632C50.1865 38.8133 50.0182 39.1261 49.9432 39.4665L45.7249 58.6324C45.6468 58.9876 45.6736 59.3578 45.8021 59.6981C45.9307 60.0383 46.1553 60.3338 46.4488 60.5486L56.5381 67.9318C57.485 68.6247 58.7035 68.7857 59.798 68.3626C60.2445 68.1906 60.65 67.927 60.9886 67.5889C61.4631 67.1137 61.7871 66.5092 61.9202 65.851L64.2374 54.4906C64.5468 52.9746 64.1468 51.4311 63.1401 50.256L53.1984 38.6499C52.9717 38.3851 52.6756 38.1888 52.3434 38.083C52.0113 37.9772 51.6562 37.9661 51.3181 38.0509Z" fill="url(#paint1_linear_1432_80533)" shape-rendering="crispEdges"/>
</g>
<g filter="url(#filter2_d_1432_80533)">
<path d="M46.2326 64.7158C47.2879 64.7158 48.2846 64.2129 48.8975 63.3538C57.886 50.7559 57.4904 33.2787 54.4556 23.7408C51.0858 13.1499 43.843 5.63971 40.1948 2.36892C38.9447 1.24817 37.0548 1.24817 35.8046 2.36892C32.1565 5.6398 24.9138 13.1499 21.544 23.7409C18.5092 33.2787 18.1136 50.7559 27.1021 63.3538C27.7151 64.2128 28.7117 64.7158 29.767 64.7158H46.2326Z" fill="url(#paint2_radial_1432_80533)"/>
</g>
<path d="M27.1024 63.3538C27.7154 64.2128 28.712 64.7158 29.7673 64.7158L33.0506 68.6571H42.9501L46.2329 64.7158C47.2882 64.7158 48.2848 64.2128 48.8977 63.3538C50.8536 60.6125 52.3647 57.6402 53.5014 54.569L22.4988 54.5691C23.6355 57.6402 25.1467 60.6126 27.1024 63.3538Z" fill="url(#paint3_radial_1432_80533)"/>
<path fill-rule="evenodd" clip-rule="evenodd" d="M39.7126 48.49C40.0946 48.5145 40.3844 48.8442 40.3598 49.2262L39.151 68.0108C39.1264 68.3929 38.7968 68.6826 38.4148 68.6581C38.0327 68.6335 37.7429 68.3038 37.7675 67.9218L38.9763 49.1372C39.0009 48.7552 39.3305 48.4654 39.7126 48.49Z" fill="#96444F"/>
<path d="M36.6117 67.8886L37.2477 48.8079C37.272 48.0798 37.923 47.5339 38.6442 47.6369C39.2781 47.7275 39.7351 48.2912 39.6925 48.9302L38.4226 67.9791C38.3862 68.5256 37.8772 68.9153 37.3401 68.8079C36.9051 68.7209 36.5969 68.332 36.6117 67.8886Z" fill="#FE5A6F"/>
<g filter="url(#filter3_d_1432_80533)">
<path d="M42.613 71.5007C40.9998 69.8818 39.7682 69.5603 37.7316 69.6507C35.5745 69.7464 33.9516 70.4922 32.8187 72.1871C31.4543 74.2281 31.7898 76.7633 31.8404 78.397C32.1354 81.5471 32.1921 86.1596 33.1297 86.5802C33.5459 86.7669 33.7688 85.7744 34.0038 85.4391C34.5797 84.6176 34.6754 86.2069 34.6754 86.2069C34.6754 86.2069 34.5069 89.3187 34.5277 89.4218C34.6148 89.853 35.1468 90.0127 35.4596 89.7017L36.1513 89.0139C36.3665 90.843 36.9081 93.2088 36.9367 93.333C37.0623 93.8784 37.8267 93.9104 38.0017 93.3777C38.0415 93.2563 38.7976 90.9449 39.1794 89.1407L39.8055 89.8838C40.0887 90.2198 40.6332 90.1052 40.7594 89.6829C40.7896 89.5819 41.1446 85.1621 41.8456 85.0692C42.4263 84.9923 42.5672 85.8912 43.0363 85.9814C44.1342 86.1927 44.3088 77.3891 44.3446 76.6077C44.4214 74.9316 44.259 73.1525 42.613 71.5007Z" fill="url(#paint4_linear_1432_80533)" fill-opacity="0.8" shape-rendering="crispEdges"/>
</g>
<path d="M51.859 17.321C48.677 11.3106 45.8427 7.9106 40.8281 2.89605C39.0604 1.12829 36.775 1.42174 35.5248 2.5425C31.8767 5.81337 27.7288 10.3028 24.494 16.9675C28.2224 15.2144 40.3535 11.3254 51.859 17.321Z" fill="url(#paint5_radial_1432_80533)"/>
<path d="M37.6466 40.7264C37.2845 41.0885 37.0602 41.5886 37.0604 42.1401C37.0605 42.6744 37.2687 43.1769 37.6466 43.5548C38.0246 43.9327 38.527 44.1409 39.0613 44.141C40.1644 44.1413 41.0616 43.2441 41.0613 42.141C41.0612 41.6067 40.853 41.1043 40.475 40.7263C40.0971 40.3484 39.5947 40.1402 39.0604 40.1401C38.5088 40.14 38.0088 40.3642 37.6466 40.7264Z" fill="#B4D1EB"/>
<defs>
<filter id="filter0_d_1432_80533" x="7.66016" y="37.9947" width="26.6582" height="38.6002" filterUnits="userSpaceOnUse" color-interpolation-filters="sRGB">
<feFlood flood-opacity="0" result="BackgroundImageFix"/>
<feColorMatrix in="SourceAlpha" type="matrix" values="0 0 0 0 0 0 0 0 0 0 0 0 0 0 0 0 0 0 127 0" result="hardAlpha"/>
<feOffset dy="4"/>
<feGaussianBlur stdDeviation="2"/>
<feComposite in2="hardAlpha" operator="out"/>
<feColorMatrix type="matrix" values="0 0 0 0 0 0 0 0 0 0 0 0 0 0 0 0 0 0 0.25 0"/>
<feBlend mode="normal" in2="BackgroundImageFix" result="effect1_dropShadow_1432_80533"/>
<feBlend mode="normal" in="SourceGraphic" in2="effect1_dropShadow_1432_80533" result="shape"/>
</filter>
<filter id="filter1_d_1432_80533" x="41.6807" y="37.9946" width="26.6592" height="38.6004" filterUnits="userSpaceOnUse" color-interpolation-filters="sRGB">
<feFlood flood-opacity="0" result="BackgroundImageFix"/>
<feColorMatrix in="SourceAlpha" type="matrix" values="0 0 0 0 0 0 0 0 0 0 0 0 0 0 0 0 0 0 127 0" result="hardAlpha"/>
<feOffset dy="4"/>
<feGaussianBlur stdDeviation="2"/>
<feComposite in2="hardAlpha" operator="out"/>
<feColorMatrix type="matrix" values="0 0 0 0 0 0 0 0 0 0 0 0 0 0 0 0 0 0 0.25 0"/>
<feBlend mode="normal" in2="BackgroundImageFix" result="effect1_dropShadow_1432_80533"/>
<feBlend mode="normal" in="SourceGraphic" in2="effect1_dropShadow_1432_80533" result="shape"/>
</filter>
<filter id="filter2_d_1432_80533" x="15.5977" y="1.52836" width="44.8047" height="71.1875" filterUnits="userSpaceOnUse" color-interpolation-filters="sRGB">
<feFlood flood-opacity="0" result="BackgroundImageFix"/>
<feColorMatrix in="SourceAlpha" type="matrix" values="0 0 0 0 0 0 0 0 0 0 0 0 0 0 0 0 0 0 127 0" result="hardAlpha"/>
<feOffset dy="4"/>
<feGaussianBlur stdDeviation="2"/>
<feComposite in2="hardAlpha" operator="out"/>
<feColorMatrix type="matrix" values="0 0 0 0 0 0 0 0 0 0 0 0 0 0 0 0 0 0 0.25 0"/>
<feBlend mode="normal" in2="BackgroundImageFix" result="effect1_dropShadow_1432_80533"/>
<feBlend mode="normal" in="SourceGraphic" in2="effect1_dropShadow_1432_80533" result="shape"/>
</filter>
<filter id="filter3_d_1432_80533" x="27.7676" y="69.6368" width="20.5918" height="32.1233" filterUnits="userSpaceOnUse" color-interpolation-filters="sRGB">
<feFlood flood-opacity="0" result="BackgroundImageFix"/>
<feColorMatrix in="SourceAlpha" type="matrix" values="0 0 0 0 0 0 0 0 0 0 0 0 0 0 0 0 0 0 127 0" result="hardAlpha"/>
<feOffset dy="4"/>
<feGaussianBlur stdDeviation="2"/>
<feComposite in2="hardAlpha" operator="out"/>
<feColorMatrix type="matrix" values="0 0 0 0 0 0 0 0 0 0 0 0 0 0 0 0 0 0 0.25 0"/>
<feBlend mode="normal" in2="BackgroundImageFix" result="effect1_dropShadow_1432_80533"/>
<feBlend mode="normal" in="SourceGraphic" in2="effect1_dropShadow_1432_80533" result="shape"/>
</filter>
<linearGradient id="paint0_linear_1432_80533" x1="13.2508" y1="59.4647" x2="21.3825" y2="52.7472" gradientUnits="userSpaceOnUse">
<stop stop-color="#FC4762" stop-opacity="0.52"/>
<stop offset="1" stop-color="#FA6076"/>
</linearGradient>
<linearGradient id="paint1_linear_1432_80533" x1="57.7992" y1="55.9292" x2="63.8096" y2="59.8183" gradientUnits="userSpaceOnUse">
<stop stop-color="#FF546A"/>
<stop offset="1" stop-color="#FF4B63" stop-opacity="0.51"/>
</linearGradient>
<radialGradient id="paint2_radial_1432_80533" cx="0" cy="0" r="1" gradientUnits="userSpaceOnUse" gradientTransform="translate(39.0607 25.8771) rotate(90) scale(38.8909 22.6758)">
<stop stop-color="white"/>
<stop offset="0.927083" stop-color="#E3E3FF"/>
<stop offset="1" stop-color="#D7D7FF"/>
</radialGradient>
<radialGradient id="paint3_radial_1432_80533" cx="0" cy="0" r="1" gradientUnits="userSpaceOnUse" gradientTransform="translate(37.6468 55.5756) rotate(93.0128) scale(13.4536 25.1175)">
<stop stop-color="#6ECAFE"/>
<stop offset="0.473251" stop-color="#6C9ED5"/>
<stop offset="1" stop-color="#5851A5"/>
</radialGradient>
<linearGradient id="paint4_linear_1432_80533" x1="38.404" y1="70.0128" x2="37.4009" y2="93.9515" gradientUnits="userSpaceOnUse">
<stop stop-color="#F92E2E"/>
<stop offset="0.503" stop-color="#FDD264" stop-opacity="0.76"/>
<stop offset="1" stop-color="#99D3FE" stop-opacity="0.69"/>
</linearGradient>
<radialGradient id="paint5_radial_1432_80533" cx="0" cy="0" r="1" gradientUnits="userSpaceOnUse" gradientTransform="translate(38.3535 8.09033) rotate(-90) scale(8 13.7482)">
<stop stop-color="#D9EDFF"/>
<stop offset="1" stop-color="#B4D1EB"/>
</radialGradient>
</defs>
</svg>
