<svg width="185" height="130" viewBox="0 0 185 130" fill="none" xmlns="http://www.w3.org/2000/svg">
<path d="M61.7931 93.8727C73.4676 100.556 88.3492 96.5091 95.0321 84.8346C101.715 73.1601 97.6684 58.2786 85.994 51.5957C74.3195 44.9128 59.4379 48.9593 52.755 60.6338C46.0722 72.3082 50.1187 87.1898 61.7931 93.8727Z" fill="url(#paint0_radial_1428_79761)"/>
<path d="M89.9606 80.6878C90.4599 76.6438 94.3009 71.7063 98.1783 70.4095C98.3151 71.6719 98.4978 76.3546 97.9925 78.0345C96.6554 82.4872 92.5582 81.5928 89.9606 80.6878Z" fill="#E6DD91" fill-opacity="0.7"/>
<path d="M93.3897 58.1154C89.622 58.6229 86.1795 65.6462 87.46 69.865C89.8145 77.6217 81.9451 93.4251 77.2737 97.0802C69.8359 97.8861 63.2558 95.345 61.1967 93.234C61.1967 93.234 77.9244 80.7628 79.7993 79.6385C87.6019 74.9592 77.59 60.882 82.5814 50.3378C87.1871 51.1504 90.7429 54.3347 93.3897 58.1154Z" fill="#E6DD91" fill-opacity="0.7"/>
<path d="M73.4308 48.4818C73.4308 48.4818 73.6922 50.8941 73.6436 52.323C73.6454 59.8478 76.6702 65.3316 77.9508 69.5503C80.3052 77.3071 61.6662 86.4701 56.9948 90.1251C56.4464 90.0484 54.1457 86.7907 52.7448 84.6876C51.3439 82.5845 50.2386 78.451 50.2386 78.451C50.2386 78.451 58.0189 73.4991 59.8937 72.3748C67.6964 67.6955 58.1388 61.5657 63.1302 51.0216C65.9345 49.3072 69.9481 48.249 73.4308 48.4818Z" fill="#E6DD91" fill-opacity="0.7"/>
<path d="M97.8102 77.3638C97.5678 78.6221 97.222 79.8727 96.7707 81.1021C100.717 84.258 102.834 86.6516 102.276 87.6263C101.063 89.7456 87.0001 85.4455 71.6481 76.6574C56.2961 67.8694 45.4667 57.9203 46.6799 55.801C47.2378 54.8262 50.376 55.4413 55.0955 57.2458C55.9253 56.233 56.8286 55.3016 57.7909 54.4554C46.4224 50.1707 37.8326 49.1629 35.9145 52.5135C32.9302 57.7269 47.221 71.5202 67.8342 83.3199C88.4475 95.1197 107.578 100.458 110.562 95.2447C112.481 91.894 107.262 84.9973 97.8102 77.3638Z" fill="url(#paint1_linear_1428_79761)"/>
<path d="M49.5155 73.6482C49.4109 72.6833 49.5819 71.1327 49.7701 70.3665C61.0458 78.7036 79.0372 88.957 87.6008 92.9103C86.791 93.3559 85.9457 93.9032 85.4767 93.954C79.8096 92.3308 70.333 87.4595 65.7849 84.9017C61.9723 82.7575 49.6462 74.8543 49.5155 73.6482Z" fill="#D5CF95"/>
<path d="M110.562 95.2447C107.578 100.458 88.4471 95.1198 67.8338 83.32C47.2205 71.5203 32.9298 57.727 35.9141 52.5136C37.4728 49.7907 43.44 49.9466 51.7253 52.4027C47.5271 51.7127 44.6087 52.1181 43.6449 53.8018C41.0982 58.2508 53.1657 69.9504 70.6001 79.9305C88.0363 89.9116 104.236 94.393 106.783 89.944C107.534 88.6314 107.014 86.6889 105.458 84.3451C109.862 89.0303 111.869 92.9611 110.562 95.2447Z" fill="url(#paint2_linear_1428_79761)"/>
<path d="M123.18 25.3143C121.696 27.3031 122.105 30.119 124.093 31.6034C126.082 33.0878 128.898 32.6789 130.383 30.69C131.867 28.7012 131.458 25.8853 129.469 24.4009C127.48 22.9164 124.664 23.3254 123.18 25.3143Z" fill="url(#paint3_linear_1428_79761)"/>
<path d="M29.8199 110.555C29.0815 104.683 23.7228 100.522 17.8511 101.26C11.9794 101.999 7.818 107.358 8.55646 113.229C9.29492 119.101 14.6535 123.262 20.5253 122.524C26.397 121.785 30.5584 116.427 29.8199 110.555Z" fill="url(#paint4_linear_1428_79761)"/>
<path d="M21.3355 101.392C25.1026 102.162 28.2359 104.932 29.4094 108.672C28.1601 108.608 26.7228 108.448 25.1018 108.139C20.8059 107.325 20.7432 103.911 21.3355 101.392Z" fill="url(#paint5_linear_1428_79761)"/>
<path d="M17.8504 101.26C18.5089 101.177 19.16 101.156 19.7993 101.193C16.7894 102.727 16.6657 107.784 19.4042 109.788C24.4392 113.472 24.5889 118.58 22.0388 122.222C21.5476 122.356 21.0438 122.458 20.5246 122.524C18.298 122.804 16.1479 122.38 14.2935 121.425C14.7779 120.367 15.5419 119.197 16.6992 117.932C21.515 112.67 11.102 112.42 11.2333 104.712C12.8946 102.87 15.1975 101.594 17.8504 101.26Z" fill="url(#paint6_linear_1428_79761)"/>
<path d="M10.9869 7.45017C11.8138 5.07208 10.5563 2.47395 8.17817 1.64709C5.80008 0.820234 3.20195 2.07775 2.37509 4.45585C1.54823 6.83394 2.80575 9.43207 5.18384 10.2589C7.56194 11.0858 10.1601 9.82826 10.9869 7.45017Z" fill="url(#paint7_radial_1428_79761)"/>
<path d="M175.572 103.816C177.424 98.4889 174.608 92.6692 169.281 90.8171C163.954 88.965 158.134 91.7817 156.282 97.1085C154.43 102.435 157.247 108.255 162.574 110.107C167.901 111.959 173.72 109.142 175.572 103.816Z" fill="url(#paint8_radial_1428_79761)"/>
<path d="M160.747 91.6904C163.083 90.0455 167.393 89.7959 169.892 91.1992C169.113 91.7111 167.018 94.0841 165.907 94.6127C162.965 96.0148 161.501 93.4656 160.747 91.6904Z" fill="#A7DFF7"/>
<path d="M158.173 93.8148C158.581 93.3029 159.242 92.6889 159.643 92.4298C158.509 94.6776 160.677 98.1148 163.206 98.1136C167.857 98.1113 172.099 105.187 172.17 108.5C171.931 108.801 170.194 109.858 168.656 110.295C167.115 110.732 164.724 110.571 164.724 110.571C164.724 110.571 165.028 105.472 165.167 104.202C165.745 98.9171 159.374 103.353 156.058 98.6608C156.25 96.7556 156.819 95.5135 158.173 93.8148Z" fill="#A7DFF7"/>
<defs>
<radialGradient id="paint0_radial_1428_79761" cx="0" cy="0" r="1" gradientUnits="userSpaceOnUse" gradientTransform="translate(72.5316 58.9517) rotate(90.7909) scale(38.2963 40.9337)">
<stop stop-color="#EDE9C8" stop-opacity="0.85"/>
<stop offset="0.208333" stop-color="#EDE490"/>
<stop offset="0.62151" stop-color="#E8DF92"/>
<stop offset="0.796875" stop-color="#CBC69E"/>
</radialGradient>
<linearGradient id="paint1_linear_1428_79761" x1="76.7052" y1="59.9232" x2="76.1897" y2="85.1981" gradientUnits="userSpaceOnUse">
<stop stop-color="#C4E8F8"/>
<stop offset="0.567708" stop-color="#51B6FE"/>
</linearGradient>
<linearGradient id="paint2_linear_1428_79761" x1="70.163" y1="79.2938" x2="68.4417" y2="85.0208" gradientUnits="userSpaceOnUse">
<stop stop-color="#38ACFF"/>
<stop offset="1" stop-color="#177AEF"/>
</linearGradient>
<linearGradient id="paint3_linear_1428_79761" x1="125.084" y1="33.3747" x2="127.441" y2="25.6368" gradientUnits="userSpaceOnUse">
<stop stop-color="#585BF2"/>
<stop offset="1" stop-color="#64D6FB"/>
</linearGradient>
<linearGradient id="paint4_linear_1428_79761" x1="8.55646" y1="113.229" x2="21.3472" y2="98.5361" gradientUnits="userSpaceOnUse">
<stop stop-color="#FF7EB8"/>
<stop offset="0.609375" stop-color="#FBD1E4"/>
</linearGradient>
<linearGradient id="paint5_linear_1428_79761" x1="21.2746" y1="105.547" x2="28.8959" y2="104.589" gradientUnits="userSpaceOnUse">
<stop stop-color="#FFC4DF" stop-opacity="0.63"/>
<stop offset="1" stop-color="#FFC4DF" stop-opacity="0.26"/>
</linearGradient>
<linearGradient id="paint6_linear_1428_79761" x1="12.1649" y1="112.775" x2="22.9907" y2="111.414" gradientUnits="userSpaceOnUse">
<stop stop-color="#FFC4DF" stop-opacity="0.63"/>
<stop offset="1" stop-color="#FFC4DF" stop-opacity="0.26"/>
</linearGradient>
<radialGradient id="paint7_radial_1428_79761" cx="0" cy="0" r="1" gradientUnits="userSpaceOnUse" gradientTransform="translate(10.3591 5.45097) rotate(177.753) scale(6.72891)">
<stop stop-color="#F0F1A4"/>
<stop offset="0.414123" stop-color="#E5E791"/>
<stop offset="0.921875" stop-color="#BBBC7D"/>
</radialGradient>
<radialGradient id="paint8_radial_1428_79761" cx="0" cy="0" r="1" gradientUnits="userSpaceOnUse" gradientTransform="translate(174.652 104.191) rotate(158.643) scale(13.516 20.578)">
<stop stop-color="#B3E6FC"/>
<stop offset="0.453125" stop-color="#94D3EE"/>
<stop offset="1" stop-color="#63C1EA"/>
</radialGradient>
</defs>
</svg>
