<svg width="86" height="67" viewBox="0 0 86 67" fill="none" xmlns="http://www.w3.org/2000/svg">
<path d="M31.7931 54.8727C43.4676 61.5556 58.3492 57.5091 65.0321 45.8346C71.7149 34.1601 67.6684 19.2786 55.994 12.5957C44.3195 5.91281 29.4379 9.9593 22.755 21.6338C16.0722 33.3082 20.1187 48.1898 31.7931 54.8727Z" fill="url(#paint0_radial_1428_79760)"/>
<path d="M59.9606 41.6878C60.4599 37.6438 64.3009 32.7063 68.1783 31.4095C68.3151 32.6719 68.4978 37.3546 67.9925 39.0345C66.6554 43.4872 62.5582 42.5928 59.9606 41.6878Z" fill="#E6DD91" fill-opacity="0.7"/>
<path d="M63.3897 19.1154C59.622 19.6229 56.1795 26.6462 57.46 30.865C59.8145 38.6217 51.9451 54.4251 47.2737 58.0802C39.8359 58.8861 33.2558 56.345 31.1967 54.234C31.1967 54.234 47.9244 41.7628 49.7993 40.6385C57.6019 35.9592 47.59 21.882 52.5814 11.3378C57.1871 12.1504 60.7429 15.3347 63.3897 19.1154Z" fill="#E6DD91" fill-opacity="0.7"/>
<path d="M43.4308 9.48183C43.4308 9.48183 43.6922 11.8941 43.6436 13.323C43.6454 20.8478 46.6702 26.3316 47.9508 30.5503C50.3052 38.3071 31.6662 47.4701 26.9948 51.1251C26.4464 51.0484 24.1457 47.7907 22.7448 45.6876C21.3439 43.5845 20.2386 39.451 20.2386 39.451C20.2386 39.451 28.0189 34.4991 29.8937 33.3748C37.6964 28.6955 28.1388 22.5657 33.1302 12.0216C35.9345 10.3072 39.9481 9.24904 43.4308 9.48183Z" fill="#E6DD91" fill-opacity="0.7"/>
<path d="M67.8102 38.3638C67.5678 39.6221 67.222 40.8727 66.7707 42.1021C70.7167 45.258 72.8343 47.6516 72.2763 48.6263C71.0632 50.7456 57.0001 46.4455 41.6481 37.6574C26.2961 28.8694 15.4667 18.9203 16.6799 16.801C17.2378 15.8262 20.376 16.4413 25.0955 18.2458C25.9253 17.233 26.8286 16.3016 27.7909 15.4554C16.4224 11.1707 7.83255 10.1629 5.91453 13.5135C2.93025 18.7269 17.221 32.5202 37.8342 44.3199C58.4475 56.1197 77.5782 61.458 80.5625 56.2447C82.4805 52.894 77.2617 45.9973 67.8102 38.3638Z" fill="url(#paint1_linear_1428_79760)"/>
<path d="M19.5155 34.6482C19.4109 33.6833 19.5819 32.1327 19.7701 31.3665C31.0458 39.7036 49.0372 49.957 57.6008 53.9103C56.791 54.3559 55.9457 54.9032 55.4767 54.954C49.8096 53.3308 40.333 48.4595 35.7849 45.9017C31.9723 43.7575 19.6462 35.8543 19.5155 34.6482Z" fill="#D5CF95"/>
<path d="M80.562 56.2447C77.5778 61.4581 58.4471 56.1198 37.8338 44.32C17.2205 32.5203 2.92981 18.727 5.91409 13.5136C7.47281 10.7907 13.44 10.9466 21.7253 13.4027C17.5271 12.7127 14.6087 13.1181 13.6449 14.8018C11.0982 19.2508 23.1657 30.9504 40.6001 40.9305C58.0363 50.9116 74.2358 55.393 76.7826 50.944C77.534 49.6314 77.0136 47.6889 75.4582 45.3451C79.862 50.0303 81.8693 53.9611 80.562 56.2447Z" fill="url(#paint2_linear_1428_79760)"/>
<defs>
<radialGradient id="paint0_radial_1428_79760" cx="0" cy="0" r="1" gradientUnits="userSpaceOnUse" gradientTransform="translate(42.5316 19.9517) rotate(90.7909) scale(38.2963 40.9337)">
<stop stop-color="#EDE9C8" stop-opacity="0.85"/>
<stop offset="0.208333" stop-color="#EDE490"/>
<stop offset="0.62151" stop-color="#E8DF92"/>
<stop offset="0.796875" stop-color="#CBC69E"/>
</radialGradient>
<linearGradient id="paint1_linear_1428_79760" x1="46.7052" y1="20.9232" x2="46.1897" y2="46.1981" gradientUnits="userSpaceOnUse">
<stop stop-color="#C4E8F8"/>
<stop offset="0.567708" stop-color="#51B6FE"/>
</linearGradient>
<linearGradient id="paint2_linear_1428_79760" x1="40.163" y1="40.2938" x2="38.4417" y2="46.0208" gradientUnits="userSpaceOnUse">
<stop stop-color="#38ACFF"/>
<stop offset="1" stop-color="#177AEF"/>
</linearGradient>
</defs>
</svg>
